<svg width="512" height="512" viewBox="0 0 512 512" fill="none" xmlns="http://www.w3.org/2000/svg">
<path d="M209.676 364.044L208.457 364.287L146.042 131.449H131.657L201.631 391.838H216.259C229.257 344.375 242.26 296.913 255.269 249.453H256L294.522 391.838H308.663C312.076 383.548 378.393 134.863 378.393 131.449H224.793L225.768 137.057C233.082 163.145 239.909 189.476 246.979 215.564C247.955 218.977 247.955 221.903 246.979 225.316L217.478 334.786L209.433 364.044M471.772 256.767V356.242C471.935 361.256 471.359 366.267 470.065 371.114C467.627 379.16 462.751 385.255 455.924 389.644L309.395 483.023L283.063 499.845C275.024 505.332 265.527 508.287 255.794 508.331C246.061 508.374 236.538 505.504 228.45 500.089C205.532 485.948 183.101 471.076 160.427 456.691C125.562 434.505 90.6974 412.074 55.5888 390.131C45.5926 383.792 40.9603 374.771 39.4974 363.312C39.0098 360.386 39.0098 357.217 39.0098 354.047V159.244C39.0098 152.661 39.2536 146.322 41.4479 140.226C44.1298 132.912 48.7622 127.548 55.345 123.404L219.916 18.5655L227.475 13.6893C235.699 7.95214 245.485 4.87598 255.513 4.87598C265.54 4.87598 275.326 7.95214 283.551 13.6893L327.924 42.215L454.949 123.16C465.92 129.986 470.796 139.983 471.772 152.417V257.255" fill="black"/>
<path d="M242.347 145.591L262.095 218.978L281.844 292.121L301.349 364.288H302.324L361.082 145.591H242.347V145.591ZM209.676 364.045L217.722 334.787L247.223 225.073C248.198 221.904 248.198 218.978 247.223 215.564L226.012 137.058L224.792 131.45H378.392C378.636 134.864 312.32 383.549 308.907 391.839H294.766L256 249.454H255.025L216.503 391.839H201.874L131.657 131.45H146.042L208.457 364.288H209.433" fill="#F0FF20"/>
<path d="M242.347 145.591H361.082L302.568 364.288H301.348L281.844 291.877L262.339 218.978L242.347 145.591Z" fill="black"/>
</svg>
