<svg width="1000" height="1000" viewBox="0 0 1000 1000" fill="none" xmlns="http://www.w3.org/2000/svg">
<g clip-path="url(#clip0_2122_98919)">
<path d="M1000 0H0V1000H1000V0Z" fill="#EBECF2"/>
<path fill-rule="evenodd" clip-rule="evenodd" d="M752.793 894.373C748.747 901.6 751.324 910.738 758.55 914.786L820.605 949.555L877.759 981.58C884.987 985.63 894.13 983.053 898.179 975.824L910.59 953.664L922.766 931.93C926.815 924.703 924.238 915.561 917.011 911.512L860.609 879.914L797.806 844.719C790.58 840.669 781.439 843.244 777.389 850.47L763.914 874.508L752.793 894.373Z" fill="#BABDCC"/>
<path fill-rule="evenodd" clip-rule="evenodd" d="M484.377 350.905C487.482 357.908 492.739 363.738 499.385 367.547L574.039 410.34L577.789 412.115C581.106 413.685 585.054 412.978 587.619 410.354C588.239 409.721 588.757 408.995 589.155 408.204L641.359 304.375L716.735 174.883C726.897 157.426 720.71 135.027 703.029 125.26L603.649 70.364C585.945 60.5842 563.66 67.3052 554.315 85.2431L535.195 121.945L517.574 164.207L475.885 311.225C473.591 319.314 474.201 327.95 477.609 335.636L484.377 350.905Z" fill="#BABDCC"/>
<path fill-rule="evenodd" clip-rule="evenodd" d="M523.395 675.661C524.704 676.376 525.186 678.016 524.471 679.325L508.401 708.755C507.686 710.064 506.046 710.545 504.737 709.83C503.428 709.116 502.947 707.476 503.661 706.167L519.732 676.737C520.446 675.428 522.087 674.947 523.395 675.661Z" fill="white"/>
<path fill-rule="evenodd" clip-rule="evenodd" d="M143.233 951.639C144.572 952.296 145.124 953.914 144.466 955.253L133.071 978.444L156.81 991.208C158.123 991.914 158.615 993.551 157.909 994.864C157.203 996.178 155.566 996.67 154.252 995.964L128.221 981.968C126.942 981.28 126.436 979.703 127.077 978.399L139.619 952.872C140.277 951.534 141.895 950.982 143.233 951.639Z" fill="white"/>
<path d="M914.161 1000L957.809 919.795C959.182 917.273 958.251 914.115 955.729 912.742C953.207 911.368 950.049 912.3 948.675 914.822L940.812 929.263L940.811 929.265L902.321 1000H914.161Z" fill="white"/>
<path fill-rule="evenodd" clip-rule="evenodd" d="M780.657 814.351C783.183 815.717 784.124 818.872 782.758 821.399L756.426 870.102L756.416 870.119L731.752 915.323C730.376 917.844 727.217 918.772 724.696 917.396C722.175 916.02 721.247 912.861 722.623 910.34L747.277 865.156L747.286 865.138L773.609 816.452C774.975 813.926 778.13 812.986 780.657 814.351Z" fill="white"/>
<path d="M236.909 1000L144.547 949.505L85.3742 916.991C85.3604 916.984 85.3465 916.976 85.3327 916.969C85.3079 916.955 85.283 916.942 85.258 916.929L73.6096 910.898L73.5692 910.877L61.6195 904.24L61.6185 904.239L0 869.966V881.867L56.5675 913.33L56.5685 913.331L68.6857 920.061C68.7883 920.118 68.892 920.171 68.9966 920.221L80.4177 926.134L139.548 958.625L215.229 1000H236.909Z" fill="white"/>
<path d="M1000 152.744L998.071 151.668L998.067 151.666L726.357 0H747.695L1000 140.834V152.744Z" fill="white"/>
<path d="M463.079 0H452.581L441.129 83.3236L439.324 95.6487C439.29 95.8753 439.272 96.1006 439.269 96.3236L438.739 103.75L438.468 106.658L431.944 162.822C431.912 163.096 431.902 163.372 431.914 163.648L432.438 175.66C432.477 176.556 432.747 177.427 433.222 178.188L438.866 187.227C439.258 187.854 439.779 188.391 440.395 188.801L449.981 195.184C450.206 195.334 450.443 195.466 450.689 195.579L460.438 200.066L466.487 202.915C469.085 204.139 472.183 203.025 473.407 200.427C474.631 197.829 473.517 194.731 470.919 193.507L464.849 190.647L464.807 190.628L455.407 186.302L447.093 180.766L442.768 173.84L442.322 163.61L448.806 107.799C448.81 107.76 448.814 107.72 448.818 107.681L449.099 104.657C449.103 104.62 449.106 104.583 449.108 104.546L449.657 96.8635L451.422 84.8082L451.429 84.763L463.079 0Z" fill="white"/>
<path d="M50.4571 0L65.23 8.21271L65.2374 8.2168L427.55 208.861L427.555 208.864L454.774 223.977C457.285 225.371 458.19 228.537 456.796 231.048C455.402 233.559 452.236 234.464 449.726 233.07L422.512 217.959L422.507 217.956L60.1917 17.3107L60.1842 17.3066L29.0532 0H50.4571Z" fill="white"/>
<path d="M455.46 1000L342.578 937.202C342.553 937.188 342.528 937.174 342.503 937.16L329.241 930.068L318.829 924.226L137.189 822.704L127.379 817.046C127.28 816.989 127.18 816.935 127.079 816.885L112.463 808.956L112.421 808.933L0 746.571V758.464L107.42 818.052L107.462 818.075L122.294 826.121C122.314 826.132 122.334 826.143 122.354 826.154L132.023 831.731C132.032 831.736 132.042 831.742 132.052 831.747C132.062 831.753 132.073 831.759 132.083 831.765L313.74 933.296L324.197 939.164L324.237 939.186L324.29 939.214L337.56 946.311L434.067 1000H455.46Z" fill="white"/>
<path d="M1000 400.445L906.417 348.965C906.347 348.923 906.277 348.882 906.205 348.842L893.177 341.678C893.136 341.655 893.094 341.633 893.053 341.612L702.615 236.862C700.099 235.478 696.937 236.395 695.553 238.912C694.169 241.428 695.087 244.59 697.603 245.974L888.162 350.791C888.203 350.814 888.245 350.836 888.287 350.857L900.97 357.832C901.039 357.874 901.109 357.915 901.181 357.955L1000 412.315V400.445Z" fill="white"/>
<path d="M1000 529.216L839.091 439.706L839.048 439.682L647.512 333.132C645.002 331.735 641.836 332.638 640.44 335.148C639.044 337.658 639.947 340.824 642.456 342.22L834.033 448.793L834.034 448.794L834.076 448.817L1000 541.116V529.216Z" fill="white"/>
<path d="M1000 808.12L734.88 659.847C734.811 659.809 734.742 659.772 734.672 659.737L436.217 492.242L424.035 485.431C423.977 485.396 423.918 485.362 423.859 485.329C423.815 485.304 423.772 485.281 423.727 485.258L414.602 480.492L412.513 479.407L405.476 475.587L394.335 469.392L394.314 469.381L346.628 443.157L336.06 437.276L336.039 437.265C336.029 437.259 336.018 437.253 336.008 437.248L322.247 429.627L322.245 429.627L0 251.053V262.943L317.206 438.724L317.207 438.725L331.002 446.364L331.012 446.369L331.045 446.387L341.581 452.251L341.601 452.262L389.303 478.494L400.446 484.689L400.491 484.714L407.593 488.57C407.621 488.585 407.649 488.6 407.677 488.615L409.798 489.716L418.734 494.383L418.775 494.406L729.787 668.921C729.861 668.963 729.936 669.002 730.011 669.04L1000 820.036V808.12Z" fill="white"/>
<path d="M894.913 1000L729.713 908.286C729.691 908.274 729.669 908.262 729.647 908.25C729.611 908.231 729.574 908.212 729.538 908.193L615.462 844.748L615.447 844.739L378.449 712.015C378.383 711.975 378.315 711.937 378.247 711.9L366.439 705.554L245.974 638.522C245.915 638.49 245.856 638.458 245.797 638.428L240.239 635.611L230.011 630.266L229.99 630.254L215.91 622.526L215.885 622.512L0 502.466V514.365L210.855 631.615L210.88 631.629L224.864 639.304C224.933 639.344 225.004 639.383 225.076 639.421L235.451 644.843L235.484 644.86L235.508 644.872L241.004 647.659L361.42 714.663L361.443 714.675L361.484 714.697L373.199 720.994L373.239 721.017L610.397 853.831L724.652 917.376C724.711 917.409 724.771 917.441 724.831 917.471L873.487 1000H894.913Z" fill="white"/>
<path d="M282.308 0H260.912L432.409 95.3851L441.724 100.819C441.776 100.852 441.83 100.884 441.884 100.915L450.955 106.11L450.964 106.115L455.073 108.466L455.101 108.482L455.14 108.504L490.527 128.066C490.569 128.09 490.611 128.112 490.653 128.134L503.12 135.023L513.179 141.096C515.638 142.581 518.834 141.791 520.319 139.332C521.803 136.874 521.013 133.677 518.555 132.193L508.41 126.068C508.377 126.048 508.344 126.028 508.31 126.009C508.286 125.995 508.262 125.982 508.237 125.968L495.562 118.964C495.52 118.941 495.479 118.919 495.437 118.898L460.205 99.4208L456.131 97.0892L456.129 97.0883L456.124 97.0852L447.179 91.9621L447.141 91.9391L447.093 91.9108L437.604 86.3756C437.574 86.3577 437.543 86.3401 437.512 86.3228L282.308 0Z" fill="white"/>
<path d="M1000 937.225L955.972 912.88C955.922 912.85 955.871 912.82 955.82 912.79L869.668 863.704C869.65 863.694 869.633 863.685 869.615 863.675L780.709 814.378C780.693 814.369 780.677 814.36 780.661 814.352C780.64 814.34 780.618 814.329 780.597 814.318L726.924 784.365L726.904 784.354L680.388 758.667C680.305 758.62 680.22 758.577 680.135 758.535L666.511 751.961L524.685 673.512L409.597 608.006L400.433 602.744C400.307 602.672 400.179 602.605 400.05 602.545L389.498 597.089L384.348 594.224L298.269 544.406C298.231 544.384 298.192 544.362 298.154 544.341C298.116 544.32 298.078 544.3 298.039 544.281L293.021 541.703L281.844 535.815C281.814 535.797 281.783 535.779 281.752 535.762L268.846 528.547L268.827 528.537L0 379.679V391.567L263.771 537.625L263.789 537.635L276.454 544.715C276.56 544.781 276.668 544.843 276.779 544.901L288.197 550.917L288.245 550.942L293.172 553.472L379.176 603.247C379.202 603.261 379.227 603.276 379.253 603.29L384.51 606.216C384.557 606.242 384.604 606.267 384.651 606.291L395.425 611.861L404.418 617.025L404.435 617.035L519.541 682.55C519.559 682.561 519.578 682.571 519.596 682.581L661.604 761.132C661.688 761.179 661.774 761.223 661.861 761.265L675.486 767.84L721.856 793.447L721.877 793.458L775.649 823.466C775.695 823.492 775.74 823.516 775.786 823.54L864.546 872.756L950.446 921.698C950.534 921.754 950.625 921.808 950.718 921.859L1000 949.109V937.225Z" fill="white"/>
<path d="M674.507 1000L637.031 979.155L577.225 945.981L577.194 945.964L563.772 938.399C563.705 938.362 563.638 938.326 563.57 938.291L363.452 826.865L354.73 821.979C354.696 821.959 354.661 821.939 354.626 821.919C354.598 821.903 354.57 821.887 354.541 821.872L343.986 816.161L343.936 816.134L343.912 816.122L343.859 816.094L339.651 813.965L188.36 729.641L178.255 723.378C178.139 723.302 178.02 723.229 177.897 723.161L0 624.722V633.849V636.608L172.71 732.177L182.983 738.545C182.992 738.55 183.002 738.556 183.011 738.562C183.021 738.568 183.031 738.574 183.041 738.58L183.074 738.6L183.097 738.613C183.128 738.631 183.159 738.649 183.191 738.667L334.679 823.101C334.74 823.134 334.802 823.167 334.864 823.198L339.1 825.342L349.472 830.954L349.521 830.981L358.368 835.938L558.681 947.472C558.71 947.489 558.739 947.504 558.768 947.52C558.79 947.532 558.812 947.543 558.835 947.555L572.111 955.037L572.149 955.059L653.016 1000H674.507Z" fill="white"/>
<path d="M801.807 1000L821.032 964.913C823.208 960.941 821.752 955.957 817.781 953.781C813.809 951.605 808.825 953.061 806.649 957.032L783.106 1000H801.807Z" fill="white"/>
<path d="M1000 282.2L956.313 257.859C956.27 257.835 956.228 257.811 956.187 257.787L943.421 250.668L943.407 250.66L943.405 250.659L753.407 144.804C753.379 144.789 753.351 144.773 753.323 144.757L740.38 137.299L573.467 43.8181L573.435 43.8004L573.416 43.7895L565.395 39.1787C563.217 40.0005 560.705 39.8942 558.511 38.674L489.066 0H522.779L566.482 24.3417C568.754 25.6051 570.191 27.7881 570.586 30.1672L578.574 34.7584L745.49 128.24C745.508 128.251 745.527 128.261 745.545 128.272L758.503 135.739L948.451 241.565L948.47 241.576L961.38 248.775C961.421 248.798 961.462 248.821 961.502 248.845L1000 270.295V282.2Z" fill="white"/>
<path d="M318.206 1000L328.64 945.34L331.677 936.282C331.719 936.154 331.757 936.026 331.789 935.898L334.967 926.073C335.017 925.918 335.06 925.761 335.095 925.603L354.802 837.084L357.112 827.687C357.123 827.643 357.133 827.598 357.143 827.554L359.603 816.844C359.608 816.821 359.613 816.798 359.618 816.775L368.877 773.829L368.88 773.815L368.881 773.808L378.799 728.438C378.809 728.392 378.818 728.346 378.827 728.299L380.885 717.476L400.854 617.7L402.852 608.652C402.866 608.603 402.879 608.555 402.891 608.506C402.902 608.459 402.913 608.412 402.924 608.365L405.529 596.451L405.538 596.407L405.545 596.375L424.693 502.149C424.704 502.096 424.714 502.043 424.723 501.99L424.728 501.958C424.732 501.939 424.735 501.92 424.738 501.901L426.46 490.655C426.469 490.6 426.476 490.546 426.483 490.491L427.794 479.642L449.181 385.084L452.327 371.633C454.342 370.64 455.943 368.827 456.598 366.493L461.895 347.618C461.9 347.601 461.904 347.584 461.909 347.567C461.924 347.514 461.938 347.46 461.951 347.406L473.889 300.043C473.939 299.844 473.982 299.643 474.017 299.441L480.646 261.246C480.748 260.652 480.786 260.05 480.757 259.448L480.237 248.698C480.23 248.544 480.218 248.39 480.202 248.237L479.118 237.916L478.625 231.91L479.236 224.373C479.387 222.508 478.901 220.738 477.961 219.278L478.244 218.404L520.335 139.318C520.384 139.236 520.431 139.152 520.477 139.066L525.785 128.976C525.884 128.788 525.97 128.597 526.044 128.404L537.113 104.176C537.184 104.02 537.248 103.86 537.304 103.697L540.233 95.1227L540.243 95.0945L551.575 61.2976C552.488 58.5747 551.021 55.6273 548.298 54.7143C545.575 53.8013 542.627 55.2685 541.714 57.9914L530.387 91.774L527.546 100.09L516.442 124.394L516.428 124.425L511.394 133.992C511.354 134.061 511.315 134.13 511.277 134.201L468.847 213.924C468.704 214.194 468.584 214.476 468.49 214.767L468.067 216.076C465.245 217.185 463.15 219.823 462.889 223.049L462.225 231.252C462.189 231.696 462.189 232.141 462.226 232.584L462.78 239.35C462.786 239.412 462.791 239.474 462.798 239.536L463.867 249.72L464.332 259.334L457.911 296.334L446.075 343.292L440.808 362.062C440.082 364.648 440.681 367.292 442.199 369.271L439.05 382.734L439.041 382.771L417.592 477.607C417.553 477.779 417.523 477.954 417.502 478.13L416.168 489.161L414.477 500.201L395.361 594.267L392.824 605.867C392.8 605.954 392.778 606.043 392.758 606.133L390.688 615.508C390.68 615.541 390.673 615.575 390.667 615.608L372.85 704.616L372.85 704.617L370.682 715.461L370.673 715.509L368.623 726.287L358.717 771.608L349.459 814.55L347.013 825.204L346.994 825.281L344.689 834.657L344.682 834.686C344.675 834.713 344.669 834.741 344.663 834.768L324.997 923.104L321.787 933.029C321.757 933.12 321.73 933.212 321.706 933.304L318.668 942.367C318.593 942.589 318.534 942.815 318.49 943.045L307.618 1000H318.206Z" fill="white"/>
<path d="M1000 683.785L974.928 669.876C974.822 669.817 974.718 669.756 974.615 669.693L934.318 646.947L934.316 646.946L774.557 556.721C774.531 556.707 774.504 556.692 774.478 556.678C774.454 556.665 774.43 556.651 774.406 556.638L708.503 519.419C708.467 519.398 708.431 519.377 708.395 519.356C708.358 519.335 708.321 519.313 708.285 519.291L583.92 449.086L506.924 406.78L503.839 405.072L457.684 379.713C457.502 379.613 457.323 379.505 457.149 379.391L444.39 371.015L434.915 365.387L405.033 348.731L399.245 346.063L389.955 342.021C389.824 341.966 389.693 341.909 389.563 341.847L374.477 334.679C374.323 334.606 374.172 334.528 374.024 334.446L0.0587769 126.62C0.0391593 126.61 0.0195677 126.6 0 126.59V108.281L7.31061 112.352C7.39868 112.396 7.48627 112.443 7.57336 112.491L381.574 320.337L396.268 327.319L405.708 331.426C405.76 331.449 405.812 331.472 405.864 331.496L412.009 334.328C412.195 334.414 412.377 334.506 412.555 334.606L442.801 351.465C442.843 351.488 442.884 351.512 442.925 351.536C442.947 351.549 442.97 351.562 442.992 351.575L452.797 357.399C452.979 357.508 453.156 357.622 453.327 357.743L465.668 365.843L511.536 391.045L511.563 391.06L514.63 392.758L578.464 427.832C578.988 427.997 579.503 428.219 580 428.5L591.701 435.105L591.8 435.16C591.837 435.18 591.874 435.201 591.911 435.222C591.952 435.245 591.993 435.269 592.034 435.293L716.378 505.486C716.453 505.528 716.526 505.571 716.598 505.615L782.122 542.62C782.176 542.649 782.229 542.678 782.281 542.708L795.4 550.126L795.402 550.127L942.182 633.013L942.184 633.014L982.757 655.916C982.804 655.942 982.851 655.969 982.897 655.997L982.969 656.04L1000 665.488V683.785Z" fill="white"/>
<path d="M1000 609.053L972.721 657.399C972.297 657.872 971.921 658.402 971.606 658.986L913.803 765.924C913.757 766.009 913.712 766.095 913.67 766.181L859.903 864.281C857.727 868.253 859.182 873.237 863.153 875.413C867.124 877.59 872.108 876.135 874.285 872.164L928.215 773.765C928.277 773.652 928.336 773.538 928.392 773.423L986.035 666.78C986.311 666.27 986.526 665.745 986.685 665.211L1000 641.613V609.053Z" fill="white"/>
<path d="M0 109.623L55.7032 8.91689L55.7183 8.88956L60.5902 0H78.8354L69.7343 16.6065L69.7192 16.6339L10.688 123.357C8.58335 127.161 3.83528 128.578 0 126.584V109.623Z" fill="white"/>
<path d="M842.547 0L763.055 143.922C763.02 143.992 762.983 144.061 762.945 144.129L707.23 245.073C707.175 245.181 707.117 245.288 707.056 245.394L651.968 341.58L603.413 430.551L603.413 430.552L594.975 446.006C592.858 449.883 587.998 451.311 584.12 449.193C580.242 447.076 578.815 442.216 580.932 438.338L589.369 422.886L589.37 422.885L637.963 333.843C637.989 333.795 638.016 333.747 638.043 333.7L693.055 237.645C693.061 237.634 693.067 237.623 693.073 237.612C693.084 237.592 693.095 237.572 693.106 237.552L748.823 136.605C748.859 136.534 748.897 136.463 748.936 136.392L824.269 0H842.547Z" fill="white"/>
<path d="M520.57 1000L554.203 939.064C554.269 938.943 554.339 938.825 554.41 938.71L771.34 545.806L829.559 440.384L829.559 440.383L938.778 242.546C938.828 242.447 938.88 242.348 938.934 242.25L1000 131.653V195.203L965.85 257.178L965.84 257.196L910.894 356.897C910.885 356.914 910.877 356.931 910.868 356.949C910.847 356.992 910.825 357.036 910.802 357.079C910.791 357.101 910.779 357.123 910.768 357.145C910.747 357.183 910.727 357.221 910.706 357.259L856.644 455.388L856.643 455.389L820.714 520.583L820.713 520.584L798.591 560.745C798.574 560.777 798.558 560.809 798.541 560.841C798.52 560.879 798.5 560.917 798.479 560.955L739.35 668.248C739.312 668.317 739.273 668.386 739.233 668.454L684.882 767.079L684.882 767.08L636.524 854.868L633.354 860.599L581.678 954.373C581.657 954.412 581.635 954.451 581.613 954.489C581.58 954.547 581.546 954.604 581.512 954.661L556.532 1000H520.57Z" fill="white"/>
<path d="M18.4341 1000L64.0986 911.838C64.1166 911.803 64.1349 911.768 64.1533 911.734C64.1847 911.676 64.2167 911.617 64.2495 911.56L112.484 826.775C112.496 826.754 112.508 826.733 112.52 826.712L122.958 808.736L140.494 775.055C140.507 775.03 140.521 775.004 140.535 774.978L140.563 774.926L168.34 723.887C168.357 723.857 168.373 723.827 168.389 723.798L220.504 630.891C220.556 630.797 220.611 630.705 220.666 630.614C220.698 630.563 220.73 630.512 220.763 630.461L226.32 621.02L246.747 582.64C246.807 582.527 246.87 582.415 246.935 582.306L267.246 545.862L272.131 536.576L272.147 536.546L272.163 536.515C272.178 536.488 272.193 536.46 272.208 536.433L326.483 438.036L326.532 437.946L351.546 391.465C351.612 391.343 351.68 391.224 351.751 391.106L377.408 345.941L386.013 330.724L394.492 315.246L394.507 315.219L417.534 273.567C417.548 273.542 417.562 273.517 417.576 273.492L445.097 224.94C445.162 224.811 445.23 224.684 445.302 224.558L450.898 214.752L461.623 194.471L461.64 194.44L461.658 194.406L492.963 136.504C493.003 136.429 493.045 136.355 493.087 136.282L495.921 131.417L498.789 126.522L498.819 126.471L504.537 116.725L539.712 55.6517C539.772 55.5479 539.833 55.446 539.897 55.346L549.4 38.5935L555.305 27.9787C555.361 27.8653 555.419 27.7526 555.481 27.6408L570.737 0H589.012L569.687 35.0135C569.624 35.1422 569.558 35.27 569.487 35.3967L563.366 46.4006L563.333 46.4589L553.615 63.5918L553.595 63.6252C553.525 63.7484 553.451 63.8691 553.375 63.9871L518.385 124.739L518.353 124.794L512.646 134.521L512.622 134.563L512.619 134.568L509.737 139.488L506.977 144.226L475.75 201.983L464.982 222.345C464.942 222.421 464.901 222.496 464.858 222.571L459.403 232.129C459.384 232.167 459.365 232.205 459.345 232.242C459.305 232.318 459.264 232.393 459.221 232.468L431.516 281.345L408.524 322.933L408.509 322.96L400.016 338.464C400.002 338.491 399.987 338.517 399.972 338.544C399.963 338.56 399.953 338.577 399.944 338.594L391.335 353.817L365.55 399.209L365.528 399.247L340.58 445.605C340.557 445.648 340.534 445.69 340.51 445.732L286.253 544.098L281.361 553.396L281.333 553.449C281.322 553.471 281.31 553.492 281.299 553.513L281.269 553.566L260.8 590.293C260.789 590.313 260.778 590.333 260.767 590.353L240.363 628.688C240.309 628.789 240.254 628.889 240.196 628.987L234.379 638.87C234.35 638.921 234.319 638.971 234.289 639.02L182.37 731.579L154.651 782.51L137.065 816.288C137.008 816.397 136.949 816.504 136.888 816.61L126.355 834.749L78.2347 919.334L36.4686 1000H18.4341Z" fill="white"/>
<path d="M898.167 643.602L954.229 673.942L934.693 710.636L907.376 695.494L905.607 698.719L903.792 697.826L891.476 720.158L891.475 720.159L884.533 732.779L857.403 717.737L898.167 643.602Z" fill="#D8DAE6"/>
<path d="M714.605 728.353L739.099 741.963L742.587 735.631L770.517 751.163L765.317 760.575L762.02 758.735L754.091 773.104L753.45 772.752L750.323 778.428L748.672 777.511L748.669 777.509L744.825 775.354L741.464 781.451L722.807 771.068L726.369 764.623L702.045 751.088L714.605 728.353Z" fill="#D8DAE6"/>
<path d="M709.805 261.397L723.557 269.05L723.56 269.052L731.24 273.288L731.244 273.29L868.824 349.74L828.605 422.238L766.185 387.222L690.838 345.326L684.354 341.759L684.349 341.757L669.919 333.721L709.805 261.397Z" fill="#D8DAE6"/>
<path d="M780.764 137.299L821.194 64.2371L977.22 151.255L936.829 224.236L780.764 137.299Z" fill="#D8DAE6"/>
<path d="M678.775 393.785L688.006 376.938L719.56 394.87L747.525 410.101L751.792 412.418L755.03 414.188L755.039 414.194L783.667 430.247L815.99 448.221L775.355 521.841L755.239 510.653L739.416 502.013L739.408 502.009L651.104 452.767L651.1 452.765L615.215 432.95L640.095 387.546L646.147 390.872L654.971 395.701L672.449 405.299L678.774 393.786L678.775 393.785Z" fill="#D8DAE6"/>
<path d="M1057.2 418.447L1056.67 419.439L1046.53 413.898L1046.53 413.896L1044.22 412.617L1031.64 405.736L1029.32 404.46L1018.98 398.811L1018.98 398.81L1016.66 397.533L1014.36 396.268L1001.73 389.357L1001.72 389.356L999.408 388.094L989.101 382.449L989.098 382.447L986.788 381.172L984.468 379.904L974.168 374.26L969.538 371.732L959.104 366.019L976.341 334.285L987.824 340.567L992.122 332.768L992.123 332.766L999.334 319.634L1010.25 299.829L1013.98 301.877L1024.3 307.522L1026.6 308.787L1041.56 316.975L1043.86 318.239L1043.86 318.241L1054.19 323.884L1054.19 323.885L1056.49 325.15L1069.15 332.092L1069.16 332.094L1071.45 333.337L1071.46 333.34L1084.06 340.248L1084.06 340.25L1086.36 341.494L1086.36 341.497L1096.31 346.954L1095.56 348.345L1117.62 360.421L1118.14 359.46L1124.45 362.914L1118 374.784L1116.84 374.143L1090.65 422.338L1091.82 422.978L1085.24 435.085L1078.32 431.284L1078.86 430.307L1057.2 418.447Z" fill="#D8DAE6"/>
<path d="M296.975 206.78L316.654 171.046L377.047 203.933L377.053 203.937L384.207 207.902L384.21 207.904L417.402 226.124L413.225 254.64L385.09 305.604L295.536 255.832L308.285 232.16L318.013 215.037L303.684 207.087L302.254 209.698L296.975 206.78Z" fill="#D8DAE6"/>
<path d="M1.90814 170.508L12.7329 150.773L44.9964 168.728L119.354 210.311L107.059 232.794L106.388 234.137L79.0323 219.028L65.8938 242.429L65.8904 242.435L51.1528 269.119L-28.2356 224.951L1.90615 170.512L1.90814 170.508Z" fill="#D8DAE6"/>
<path d="M936.96 85.2913L936.487 86.1563L842.108 33.1242L875.212 -26.2344L969.154 26.5664L968.801 27.2094L972.749 29.4132L940.483 87.2795L936.96 85.2913Z" fill="#D8DAE6"/>
<path d="M173.684 783.026L190.124 753.095L331.359 831.268L324.794 864.78L286.251 843.444L283.779 847.941L279.398 845.517L282.344 840.142L254.004 824.459L243.808 843.041L266.53 855.611L253.872 878.667L229.032 864.92L248.895 828.741L245.078 826.627L246.797 823.494L173.684 783.026Z" fill="#D8DAE6"/>
<path fill-rule="evenodd" clip-rule="evenodd" d="M589.311 30.8L629.549 -41.845L687.717 -9.38977L648.147 62.0404L608.693 40.0189L608.013 41.2339L589.311 30.8ZM657.688 15.412L629.899 0.772842L618.515 22.5371L646.304 37.1805L657.688 15.412Z" fill="#D8DAE6"/>
<path d="M130.586 -62.0486L166.987 -41.7943L146.011 -3.7742L167.06 7.93594L147.242 43.8536L89.7791 11.9077L130.586 -62.0486Z" fill="#D8DAE6"/>
<path d="M184.483 415.75L201.365 385.186L252.839 414.102L232.879 450.487L223.051 445.049L202.62 482.28L163.481 460.432L182.482 426.014L175.247 421.982L180.05 413.274L184.483 415.75Z" fill="#D8DAE6"/>
<path d="M466.383 904.789L542.212 947.268L514.789 996.606L483.8 979.251L492.808 963.068L471.258 950.988L470.058 953.149L446.764 940.114L466.383 904.789Z" fill="#D8DAE6"/>
<path d="M961.748 733.196L984.799 691.565L1058.94 732.927L1037.51 771.614L1015.36 759.244L1012.72 757.787L1012.72 757.784L999.253 750.258L995.608 756.832L989.746 753.549L981.382 748.908L983.33 745.279L961.748 733.196Z" fill="#D8DAE6"/>
<path d="M177.882 300.088L202.144 256.167L224.635 268.693L183.681 342.871L118.912 306.636L135.372 276.264L159.998 290.129L160.002 290.131L177.882 300.088Z" fill="#D8DAE6"/>
<path d="M72.1851 564.602L108.266 584.895L88.5709 620.143L98.5826 625.792L79.9478 659.168L33.8589 633.246L72.1851 564.602Z" fill="#D8DAE6"/>
<path d="M92.4699 93.4846L112.412 57.2634L143.87 74.704L124.125 110.587L117.561 106.931L107.701 101.472L87.0258 139.03L35.8879 110.664L55.5761 74.8884L69.7545 82.7475L65.4069 90.5208L95.4943 107.201L100.567 97.9806L92.4699 93.4846Z" fill="#D8DAE6"/>
<path d="M152.106 822.327L172.726 784.779L244.09 824.279L242.371 827.412L246.187 829.525L227.286 863.952L152.106 822.327Z" fill="#D8DAE6"/>
<path d="M925.042 347.386L965.439 273.007L1009.46 297.109L1008.98 297.99L1008.98 297.995L997.585 318.67L997.584 318.671L990.854 330.928L979.325 324.608L977.907 327.23L974.577 325.407L965.743 341.656L969.075 343.48L957.354 365.059L925.042 347.386Z" fill="#D8DAE6"/>
<path d="M185.42 343.845L226.375 269.667L243.627 279.268L220.542 321.044L229.367 325.973L231.064 322.896L238.307 326.917L236.612 329.987L262.811 344.576L244.934 376.959L185.42 343.845Z" fill="#D8DAE6"/>
<path d="M350.813 60.6236L350.901 60.4644L431.393 105.24L429.041 127.323L428.681 127.12L428.677 127.118L377.129 98.4632L367.278 116.313L358.551 111.45L338.703 147.423L322.029 138.146L341.88 102.169L337.686 99.8371L347.796 81.5352L341.275 77.9214L350.813 60.6236Z" fill="#D8DAE6"/>
<path d="M-10.5742 -11.1816L9.86534 0.178852L-5.79942 28.5793L-3.54662 29.8512L-3.541 29.8544L20.0098 42.952L-5.14113 88.5291L-51.4087 62.8057L-10.5742 -11.1816Z" fill="#D8DAE6"/>
<path d="M974.979 29.5207L978.938 22.6582L1033.63 53.4991L1020.4 77.207L1002.93 109.715L975.164 94.1164L986.401 73.9709L982.33 71.7144L982.325 71.7113L958.827 58.4919L974.979 29.5207Z" fill="#D8DAE6"/>
<path d="M378.713 122.755L387.636 106.592L427.119 128.544L420.968 186.081L414.493 189.572L399.872 181.527L392.88 177.351L350.343 153.897L360.582 135.359L381.315 147.074L388.357 150.762L396.345 136.553L397.897 133.421L378.713 122.755Z" fill="#D8DAE6"/>
<path d="M18.8497 869.533L7.52932 863.247L7.90742 862.576L2.21094 859.401L22.4773 822.19L16.8445 819.121L33.5722 788.701L54.8975 800.524L42.6661 822.775L86.4169 847.02L72.0013 873.244L29.6961 849.811L18.8497 869.533Z" fill="#D8DAE6"/>
<path d="M834.185 238.978L850.429 209.557L924.544 250.765L904.788 286.568L868.468 266.364L871.972 259.997L834.185 238.978Z" fill="#D8DAE6"/>
<path d="M108.831 233.721L121.104 211.278L157.536 231.181L117.153 305.668L91.1714 291.477L105.974 263.361L95.9499 258.037L102.948 244.733L107.703 235.978L108.831 233.721Z" fill="#D8DAE6"/>
<path d="M578.364 724.596L578.537 724.278L643.389 760.266L625.135 793.431L597.812 778.262L599.847 774.583L579.858 763.49L558.346 802.53L550.279 798.061L571.342 759.821L561.863 754.558L564.184 750.33L578.364 724.596Z" fill="#D8DAE6"/>
<path d="M112.578 625.968L128.993 596.559L201.81 637.532L181.173 674.604L150.257 657.207L162.304 635.613L155.154 631.593L147.373 645.542L112.578 625.968Z" fill="#D8DAE6"/>
<path d="M367.25 819.289L375.294 779.645L445.358 818.454L443.614 821.626L446.243 823.067L429.403 853.713L367.25 819.289Z" fill="#D8DAE6"/>
<path d="M840.163 659.259L860.31 622.642L896.409 642.642L882.103 668.673L878.212 666.513L866.198 688.389L870.076 690.533L855.65 716.768L829.075 702.046L849.704 664.542L840.163 659.259Z" fill="#D8DAE6"/>
<path d="M648.586 666.121L617.816 648.689L617.043 645.774L615.952 647.672L608.486 643.456L621.251 620.759L628.7 624.984L627.275 627.479L630.879 626.215L667.315 646.845L668.334 645.025L691.605 658.209L694.558 668.769L678.213 697.858L642.215 677.461L648.586 666.121Z" fill="#D8DAE6"/>
<path d="M415.896 680.064L434.654 645.994L451.846 655.535L434.663 686.738L445.264 692.628L445.358 692.679L441.327 699.999L447.715 703.551L447.299 704.308L431.76 732.522L389.968 709.332L398.698 670.518L415.896 680.064Z" fill="#D8DAE6"/>
<path d="M264.75 181.266L281.189 151.38L305.58 164.903L282.442 206.938L283.527 211.824L290.178 215.512L274.428 244.134L240.754 225.457L238.465 224.184L254.258 195.495L257.884 197.51L266.336 182.149L264.75 181.266Z" fill="#D8DAE6"/>
<path d="M134.638 165.429L175.048 92.0056L201.729 106.805L182.811 141.18L202.25 151.962L199.154 157.599L179.85 146.897L161.463 180.311L134.638 165.429Z" fill="#D8DAE6"/>
<path d="M868.947 527.442L869.205 526.978L891.866 539.583L893.975 535.774L895.364 536.546L893.264 540.345L893.88 540.696L892.176 543.764L873.878 576.943L815.732 544.599L835.476 508.826L868.947 527.442Z" fill="#D8DAE6"/>
<path d="M666.075 565.933L688.283 525.603L753.975 562.058L736.799 593.24L716.057 581.734L719.838 574.891L695.498 561.38L688.552 574.017L674.008 565.954L672.168 569.313L666.075 565.933Z" fill="#D8DAE6"/>
<path d="M833.84 505.62L855.004 467.287L912.677 499.373L895.43 530.623L872.073 517.634L868.172 524.72L835.578 506.592L835.576 506.591L833.84 505.62Z" fill="#D8DAE6"/>
<path d="M715.998 99.9172L756.591 26.6262L789.064 44.7391L768.595 81.7002L757.299 75.3955L737.17 111.739L715.998 99.9172Z" fill="#D8DAE6"/>
<path d="M774.38 185.145L778.658 177.372L838.191 210.328L834.351 217.257L821.767 240.119L752.778 201.851L764.88 179.884L774.38 185.145Z" fill="#D8DAE6"/>
<path d="M0.996658 697.092L-16.2504 728.139L-42.2048 713.618L-27.4918 687.105L-23.6401 689.261L-14.8876 673.483L-18.7311 671.342L-3.98405 644.78L28.036 662.694L9.89113 695.362L9.6205 695.859L3.57101 692.474L0.996658 697.092Z" fill="#D8DAE6"/>
<path d="M-33.8923 910.668L-18.4282 882.764L46.4934 919.023L28.5433 951.391L-3.33805 933.589L1.61924 924.631L-7.47444 919.56L-9.95844 924.04L-33.8923 910.668Z" fill="#D8DAE6"/>
<path d="M449.401 470.539L465.019 406.372L521.526 438.048L509.215 460.532L483.693 446.377L482.468 448.603L481.039 447.818L470.525 466.89L475.252 469.512L468.764 481.294L449.401 470.539Z" fill="#D8DAE6"/>
<path d="M697.994 29.312L711.943 4.14282L742.083 20.9539L728.349 45.7588L722.411 42.4463L710.986 63.0867L716.923 66.3991L702.525 92.3992L672.388 75.5733L682.736 56.8788L688.165 59.9177L703.435 32.3509L697.994 29.312Z" fill="#D8DAE6"/>
<path d="M144.572 572.379L159.748 544.78L171.21 551.151L163.561 565.034L172.411 569.955L180.071 556.056L200.285 567.274L192.538 581.368L205.935 588.798L216.998 568.708L234.956 578.664L216.237 612.674L144.347 572.78L144.572 572.379Z" fill="#D8DAE6"/>
<path d="M356.241 -59.8892L357.563 -62.2581L363.866 -58.7531L359.02 -50.0528L365.563 -46.387L367.835 -50.48L370.342 -52.3222L373.361 -53.3095L376.533 -53.3237L379.549 -52.3513L382.128 -50.4755L383.991 -47.9167L384.96 -44.8924L384.95 -41.8229L379.523 -32.0365L383.269 -29.9585L352.243 25.9723L328.359 12.7236L353.969 -33.4719L342.43 -39.8704L344.381 -43.3923L344.383 -43.3944L354.207 -61.0257L356.241 -59.8892Z" fill="#D8DAE6"/>
<path d="M764.2 636.358L792.432 585.025L839.011 610.845L824.245 637.704L820.708 635.736L821.937 633.51L815.977 630.223L814.755 632.445L811.416 630.6L812.638 628.378L792.712 617.33L785.472 630.521L801.565 639.427L794.131 652.95L789.021 650.11L789.02 650.11L764.2 636.358Z" fill="#D8DAE6"/>
<path d="M-32.5893 924.412L-32.5282 924.301L-14.5219 934.378L-16.5689 938.07L-8.35464 942.663L-4.29185 935.338L27.2393 952.945L8.88125 986.048L-35.3284 961.356L-34.2507 959.419L-47.7988 951.836L-32.5906 924.414L-32.5893 924.412Z" fill="#D8DAE6"/>
<path d="M351.666 900.394L361.335 847.837L414.135 877.64L397.042 908.411L351.666 900.394Z" fill="#D8DAE6"/>
<path d="M732.54 222.112L744.853 199.732L767.694 212.406L760.666 225.172L774.958 233.099L781.986 220.337L799.022 229.778L780.025 264.287L725.863 234.243L726.819 232.517L724.949 231.477L730.673 221.073L732.54 222.112Z" fill="#D8DAE6"/>
<path d="M513.852 483.392L514.288 482.606L568.217 512.524L550.639 544.459L496.7 514.543L513.851 483.395L513.852 483.392Z" fill="#D8DAE6"/>
<path d="M799.513 727.513L803.699 719.924L839.787 739.998L836.086 746.708L828.789 742.646L825.568 748.475L827.037 749.292L821.642 759.067L822.771 759.692L818.562 767.325L805.92 760.289L803.332 765L806.771 766.911L807.19 768.173L805.075 772.001L803.965 772.148L800.578 770.273L798.094 774.756L807.826 780.163L797.187 799.449L801.187 801.688L796.492 810.193L766.841 793.715L772.54 783.373L776.453 785.548L786.101 768.083L797.182 774.241L799.643 769.755L796.481 767.987L795.952 766.662L798.085 762.8L798.839 762.499L802.523 764.549L805.114 759.852L787.177 749.872L791.578 741.885L797.613 745.244L800.269 740.43L803.735 742.368L806.856 736.691L803.402 734.773L805.547 730.871L799.513 727.513Z" fill="#D8DAE6"/>
<path d="M64.4651 352.509L82.9891 318.741L86.6055 320.916L90.3346 323.298L71.9447 356.579L69.2451 361.483L88.0752 371.959L86.7535 374.348L68.3598 407.471L31.321 386.618L49.7898 352.974L50.697 351.605L61.9353 357.862L64.4651 352.509Z" fill="#D8DAE6"/>
<path d="M189.544 534.694L201.063 513.783L254.393 543.379L235.92 576.912L201.189 557.648L203.482 553.488L193.313 547.843L197.978 539.366L189.544 534.694Z" fill="#D8DAE6"/>
<path d="M287.855 734.532L308.636 696.603L316.737 701.088L311.21 711.166L351.166 733.254L344.545 765.845L287.855 734.532Z" fill="#D8DAE6"/>
<path d="M80.8426 743.525L82.962 739.74L86.7358 741.851L81.8761 750.617L96.3085 758.678L98.4526 754.823L129.45 772.168L129.453 772.169L129.916 772.43L113.144 802.641L61.6841 773.851L79.0645 742.539L80.8426 743.525Z" fill="#D8DAE6"/>
<path d="M222.919 118.556L242.623 129.473L225.642 160.311L227.036 161.08L203.595 203.666L182.513 191.984L222.919 118.556Z" fill="#D8DAE6"/>
<path d="M384.929 982.518L402.107 992.077L402.011 992.254L402.007 992.263L363.219 1062.44L336.325 1047.46L333.107 1042.83L331.774 1028.88L356.15 1032.86L360.436 1035.25L371.087 1015.97L367.534 1013.99L368.919 1011.47L374.507 1001.38L384.929 982.518Z" fill="#D8DAE6"/>
<path d="M385.232 -2.61095L404.661 -39.4614L445.752 -15.2208L440.319 23.1211L412.674 7.91754L419.555 -4.61911L407.665 -11.2008L398.818 4.90339L393.88 2.16071L387.032 -1.61309L387.03 -1.61433L385.232 -2.61095Z" fill="#D8DAE6"/>
<path d="M396.763 376.778L397.288 376.635L398.514 376.512L399.724 376.714L400.231 376.894L401.32 377.534L401.735 377.893L402.438 378.783L403.026 381.249L394.764 459.022L394.366 459.788L393.737 460.405L392.638 460.981L392.371 461.283L391.797 461.041L390.681 460.733L390.254 460.506L361.793 444.469L361.424 444.144L360.731 443.228L360.312 442.169L360.195 441.059L360.37 439.931L360.866 438.829L394.803 378.082L395.667 377.332L396.763 376.778Z" fill="#D8DAE6"/>
<path d="M760.789 -31.4145L765.322 -39.491L783.998 -28.9205L787.549 -35.2525L822.237 -15.6209L807.377 10.8191L771.01 -9.76674L765.28 0.424633L748.172 -9.26218L752.939 -17.7522L758.61 -14.5375L766.328 -28.2777L760.789 -31.4145Z" fill="#D8DAE6"/>
<path d="M564.17 998.986L580.783 968.971L636.872 1000.26L636.676 1000.62L624.603 1022.43L590.091 1003.18L585.751 1011.02L564.17 998.986Z" fill="#D8DAE6"/>
<path d="M570.133 467.221L572.735 462.55L599.908 477.625L579.843 514.06L578.775 516.312L582.056 518.123L563.596 551.654L552.387 545.43L570.424 512.662L572.957 509.044L553.141 498.129L559.192 487.073L559.193 487.07L570.131 467.225L570.133 467.221Z" fill="#D8DAE6"/>
<path d="M695.091 581.904L711.087 590.783L715.099 583.486L735.842 594.992L713.103 636.283L676.371 615.901L695.091 581.904Z" fill="#D8DAE6"/>
<path d="M258.23 946.28L272.24 920.814L310.297 941.901L304.923 969.397L230.482 947.667L232.901 940.462L258.23 946.28Z" fill="#D8DAE6"/>
<path d="M213.7 489.551L231.675 456.79L239.089 460.879L233.707 470.701L280.812 496.758L280.815 496.759L281.247 496.997L268.61 520.031L267.576 520.383L213.265 490.34L213.699 489.554L213.7 489.551Z" fill="#D8DAE6"/>
<path d="M309.767 618.298L328.458 585.092L372.116 609.864L374.609 614.655L369.78 640.291L330.57 618.045L325.429 627.178L309.767 618.298Z" fill="#D8DAE6"/>
<path d="M731.044 933.707L751.488 945.218L714.292 1011.78L693.843 1000.27L731.044 933.707Z" fill="#D8DAE6"/>
<path d="M661.243 825.224L684.899 782.013L716.984 799.73L693.33 842.919L691.238 841.772L672.511 831.521L672.503 831.517L661.243 825.224Z" fill="#D8DAE6"/>
<path d="M560.106 803.5L574.801 776.83L599.438 790.505L603.266 783.564L624.182 795.183L605.67 828.795L560.106 803.5Z" fill="#D8DAE6"/>
<path d="M835.23 259.319L854.457 270.015L864.186 266.27L866.613 267.627L903.811 288.319L900.581 294.181L872.307 278.459L855.695 308.58L819.231 288.294L835.23 259.319Z" fill="#D8DAE6"/>
<path d="M436.938 515.831L469.018 534.005L468.034 535.736L477.999 541.383L464.413 565.549L458.245 562.049L452.44 572.366L424.555 556.564L434.252 516.291L434.621 515.723L435.135 515.371L435.658 515.281L436.938 515.831Z" fill="#D8DAE6"/>
<path d="M164.826 402.099L180.57 373.619L199.607 384.209L183.692 413.023L179.258 410.547L172.522 422.76L179.756 426.791L161.723 459.458L141.498 448.197L159.339 415.909L165.166 419.159L172.303 406.259L164.826 402.099Z" fill="#D8DAE6"/>
<path d="M938.047 95.7458L957.857 60.2385L980.485 72.9688L969.262 93.0899L1001.97 111.469L993.396 126.855L938.047 95.7458Z" fill="#D8DAE6"/>
<path d="M671.814 23.4413L689.458 -8.41504L710.192 3.16802L696.243 28.3382L690.669 25.2367L679.192 45.9374L684.778 49.0586L670.638 74.5984L649.889 63.015L660.324 44.1956L664.434 46.5004L675.935 25.746L671.814 23.4413Z" fill="#D8DAE6"/>
<path d="M751.668 659.151L763.236 638.111L787.178 651.376L784.67 655.935L803.58 666.404L806.855 660.445L802.652 658.109L808.318 647.803L824.4 656.729L826.521 652.872L827.982 653.681L817.47 672.784L813.482 670.577L809.718 677.412L813.706 679.635L807.849 690.284L751.668 659.151Z" fill="#D8DAE6"/>
<path d="M929.292 429.327L949.146 392.777L985.734 412.804L985.524 413.189L965.896 449.352L929.292 429.327Z" fill="#D8DAE6"/>
<path d="M-1.72322 325.821L-1.62235 325.636L38.2647 347.697L20.2622 380.495L-19.6282 358.428L-1.72519 325.825L-1.72322 325.821Z" fill="#D8DAE6"/>
<path d="M564.173 682.34L583.951 647.18L620.58 667.932L618.207 672.133L600.811 703.103L564.173 682.34Z" fill="#D8DAE6"/>
<path d="M384.655 742.533L386.673 741.434L389.262 741.515L429.662 763.834L415.938 788.793L409.079 785.003L404.423 793.479L375.724 777.592L382.493 745.289L384.655 742.533Z" fill="#D8DAE6"/>
<path d="M307.622 540.819L319.069 519.974L347.932 535.943L344.824 541.601L368.392 554.181L382.423 555.681L379.759 580.746L307.622 540.819Z" fill="#D8DAE6"/>
<path d="M333.106 494.42L348.151 467.013L389.423 489.862L386.486 517.414L371.793 515.83L333.106 494.42Z" fill="#D8DAE6"/>
<path d="M124.825 869.19L137.494 846.134L186.292 873.188L169.15 904.35L153.646 895.757L159.208 885.648L150.031 880.553L148.925 882.553L124.825 869.19Z" fill="#D8DAE6"/>
<path d="M162.009 492.111L199.311 512.812L180.858 546.314L152.06 530.325L143.559 525.623L162.009 492.111Z" fill="#D8DAE6"/>
<path d="M851.917 796.44L855.167 790.557L868.339 797.898L872.035 791.194L883.682 797.674L857.925 844.357L828.247 827.845L847.069 793.738L851.917 796.44Z" fill="#D8DAE6"/>
<path d="M402.435 11.8173L403.25 10.3301L407.714 12.802L405.631 16.5918L410.756 19.4239L401.776 35.7709L414.796 42.9779L423.643 26.8685L437.062 34.296L439.452 34.9504L434.623 69.092L429.76 71.5039L383.663 46.0026L384.001 45.3759L384.005 45.3697L402.435 11.8173Z" fill="#D8DAE6"/>
<path d="M101.263 425.802L119.093 393.518L157.591 414.936L139.75 447.224L101.263 425.802Z" fill="#D8DAE6"/>
<path d="M123.585 384.373L141.538 351.881L178.826 372.646L162.597 402.004L162.596 402.006L160.874 405.141L123.585 384.373Z" fill="#D8DAE6"/>
<path d="M443.264 983.349L457.101 958.433L462.724 961.581L459.271 967.803L513.817 998.354L503.422 1017.04L443.264 983.349Z" fill="#D8DAE6"/>
<path d="M80.0249 241.958L86.0856 236.3L100.735 244.651L93.2566 258.869L103.28 264.193L89.4247 290.509L52.9031 270.093L67.1598 244.279L76.019 249.209L80.0249 241.958Z" fill="#D8DAE6"/>
<path d="M539.853 874.958L560.541 837.338L591.669 854.586L572.01 890.23L547.673 876.761L544.451 882.616L532.528 876.003L534.387 872.623L534.68 872.094L539.853 874.958Z" fill="#D8DAE6"/>
<path d="M673.5 902.082L663.678 919.671L661.945 918.695L657.351 926.902L638.518 916.296L635.065 922.487L613.937 910.594L632.766 876.895L649.965 886.596L642.656 899.663L651.211 904.485L658.52 891.403L666.543 895.921L665.585 897.632L673.5 902.082Z" fill="#D8DAE6"/>
<path d="M187.498 11.427L204.234 -18.8923L242.662 2.47945L225.933 32.8025L187.498 11.427Z" fill="#D8DAE6"/>
<path d="M100.734 670.883L117.95 640.047L142.544 653.895L130.473 675.519L168.683 697.015L163.538 706.211L100.734 670.883Z" fill="#D8DAE6"/>
<path d="M931.537 988.271L934.215 983.43L943.603 988.635L947.988 991.077L949.988 994.593L964.091 1002.43L974.161 984.166L978.772 986.73L974.304 994.838L979.383 997.667L983.856 989.557L988.444 992.105L967.452 1030.18L962.884 1027.64L965.764 1022.41L965.776 1020.27L968.936 1014.54L972.326 1012.97L965.899 1009.4L965.372 1012.39L962.098 1018.31L960.582 1019.62L958.057 1024.21L922.592 1004.5L925.271 999.651L923.557 998.714L923.035 996.888L923.947 995.214L925.777 994.692L928.675 996.285L929.596 994.631L930.517 992.946L927.614 991.357L927.084 989.529L928.003 987.859L929.836 987.336L931.537 988.271Z" fill="#D8DAE6"/>
<path d="M58.7473 474.394L75.4426 444.076L112.46 464.621L95.7793 494.935L58.7473 474.394Z" fill="#D8DAE6"/>
<path d="M27.2494 577.538L42.9738 549.356L69.9298 564.531L54.2872 592.536L44.6541 587.129L22.4756 626.843L14.8716 622.561L27.0408 600.609L27.0423 600.606L36.8982 582.961L27.2494 577.538Z" fill="#D8DAE6"/>
<path d="M151.076 -8.82334L168.734 -40.8223L203.406 -21.5431L202.963 -20.7352L185.746 10.4548L151.076 -8.82334Z" fill="#D8DAE6"/>
<path d="M474.03 25.8749L477.276 4.159L480.501 3.09595L535.768 32.9065L524.848 53.2905L524.534 53.1186L474.03 25.8749Z" fill="#D8DAE6"/>
<path d="M232.405 48.3691L259.959 63.7017L268.431 68.3982L251.558 98.9738L215.543 78.9305L232.405 48.3691Z" fill="#D8DAE6"/>
<path d="M-11.5286 557.145L5.47885 526.696L21.4684 535.691L-17.1735 604.882L-32.7354 596.125L-16.4762 567L-12.4767 569.254L-7.10245 559.641L-11.5286 557.145Z" fill="#D8DAE6"/>
<path d="M398.444 910.005L415.879 878.621L429.081 886.026L426.849 890.061L428.484 890.97L418.364 909.171L417.199 908.53L409.869 921.723L415.893 925.114L397.715 957.817L381.139 948.544L396.808 920.337L400.554 913.611L397.414 911.853L398.444 910.005Z" fill="#D8DAE6"/>
<path d="M7.14169 456.474L43.1077 476.441L26.5374 506.548L-9.44019 486.582L7.14169 456.474Z" fill="#D8DAE6"/>
<path d="M287.55 578.737L286.062 577.905L291.111 568.931L291.597 568.402L292.872 567.391L294.314 566.74L295.881 566.433L297.337 566.483L307.117 572.027L306.703 572.765L326.714 584.105L317.659 600.212L314.676 598.517L304.617 616.381L275.625 599.934L287.55 578.737Z" fill="#D8DAE6"/>
<path d="M989.467 228.99L999.059 211.828L1043.22 236.694L1023.16 272.601L1009.19 264.723L1019.66 245.992L991.57 230.18L989.467 228.99Z" fill="#D8DAE6"/>
<path d="M136.317 274.506L159.285 232.151L183.375 245.72L160.092 287.892L136.317 274.506Z" fill="#D8DAE6"/>
<path d="M49.0149 1008.44L58.0201 992.144L103.856 1017.46L112.023 1002.69L119.324 1006.72L102.151 1037.79L49.0149 1008.44Z" fill="#D8DAE6"/>
<path d="M510.872 847.596L527.979 816.466L559.99 834.192L559.273 835.494L559.272 835.495L542.877 865.326L510.872 847.596Z" fill="#D8DAE6"/>
<path d="M850.324 776.826L849.73 777.901L843.216 774.282L856.148 750.857L864.416 755.448L865.154 754.104L897.725 772.214L884.648 795.923L850.324 776.826Z" fill="#D8DAE6"/>
<path d="M967.398 879.535L966.671 879.136L971.326 870.662L967.557 868.58L970.772 862.736L981.762 868.822L980.755 870.662L1001.37 882.098L995.499 892.756L990.788 890.143L988.692 891.721L987.448 893.987L986.434 893.972L982.233 901.594L988.667 905.161L983.596 914.382L982.543 916.285L950.851 898.711L951.563 897.398L951.567 897.391L955.317 890.598L959.912 893.142L967.398 879.535Z" fill="#D8DAE6"/>
<path d="M259.059 719.763L266.393 723.816L249.751 754.165L249.236 755.107L201.98 728.997L211.525 711.576L212.16 711.931L251.456 733.629L259.059 719.763Z" fill="#D8DAE6"/>
<path d="M944.201 764.878L958.771 738.574L978.214 749.454L979.542 750.179L979.548 750.182L988.761 755.294L988.764 755.296L994.631 758.581L988.255 770.107L980.06 784.888L944.201 764.878Z" fill="#D8DAE6"/>
<path d="M246.685 377.931L266.6 341.869L275.455 346.799L268.729 358.987L280.194 365.365L286.933 353.178L295.877 358.154L275.961 394.216L246.685 377.931Z" fill="#D8DAE6"/>
<path d="M651.165 684.833L677.241 699.601L657.28 735.096L631.204 720.324L651.165 684.833Z" fill="#D8DAE6"/>
<path d="M810.454 795.671L819.87 778.617L820.131 778.76L820.136 778.763L845.314 792.764L826.492 826.873L798.232 811.165L807.642 794.12L810.454 795.671Z" fill="#D8DAE6"/>
<path d="M127.653 108.327L145.619 75.6736L173.307 91.0352L155.342 123.674L127.653 108.327Z" fill="#D8DAE6"/>
<path d="M594.828 944.79L603.184 929.852L635.904 948.281L635.906 948.283L639.322 950.193L649.649 931.722L658.859 936.902L640.179 970.324L594.828 944.79Z" fill="#D8DAE6"/>
<path d="M751.31 730.407L759.227 716.051L760.897 716.976L764.24 710.945L759.828 708.479L765.296 698.569L779.994 706.748L775.947 714.072L783.523 718.292L787.57 710.952L801.943 718.951L797.272 727.419L796.474 728.86L792.864 726.844L789.87 732.266L790.683 732.711L783.725 745.334L776.032 741.066L774.72 743.431L770.649 741.159L776.05 731.379L770.489 728.196L769.815 729.406L767.765 728.268L762.999 736.904L751.31 730.407Z" fill="#D8DAE6"/>
<path d="M106.25 962.165L106.589 961.525L118.653 968.215L125.611 972.064L114.369 992.495L71.0125 968.468L81.9005 948.658L106.25 962.165Z" fill="#D8DAE6"/>
<path d="M472.532 578.933L489.864 548.095L518.023 564.046L500.689 594.888L499.346 594.134L499.341 594.132L494.197 591.205L472.532 578.933Z" fill="#D8DAE6"/>
<path fill-rule="evenodd" clip-rule="evenodd" d="M951.442 524.885L951.983 523.908L980.74 539.905L974.035 552.038L971.238 550.488L963.819 563.9L966.523 565.389L961.845 573.856L960.855 573.303L940.118 561.774L942.322 557.777L935.404 553.938L951.442 524.885ZM959.655 538.468L955.249 536.031L944.519 555.464L948.916 557.931L959.655 538.468Z" fill="#D8DAE6"/>
<path d="M661.68 573.657L665.1 567.677L672.96 572.038L674.8 568.678L694.174 579.415L676.025 612.373L648.7 597.218L661.68 573.657Z" fill="#D8DAE6"/>
<path d="M546.203 883.586L548.463 879.481L571.049 891.982L555.307 920.621L554.084 921.153L552.348 921.002L517.865 902.698L524.756 890.169L539.799 898.158L547.192 884.136L546.203 883.586Z" fill="#D8DAE6"/>
<path d="M933.233 514.183L944.852 520.642L944.11 521.955L949.213 524.792L943.075 535.915L939.95 534.173L932.351 547.928L923.471 542.996L924.052 541.942L918.482 538.844L917.9 539.883L902.482 531.306L910.76 516.3L906.83 514.124L912.179 504.426L917.157 507.21L917.994 505.704L927.285 510.872L926.448 512.377L932.409 515.686L933.233 514.183Z" fill="#D8DAE6"/>
<path d="M963.837 808.746L956.781 821.547L955.861 821.035L951.135 829.64L946.629 827.13L944.699 830.62L936.863 826.27L935.808 828.158L914.902 816.569L919.756 807.732L921.657 808.786L925.505 801.804L923.603 800.749L929.642 789.786L948.667 800.333L947.479 802.492L954.353 806.311L955.541 804.15L963.837 808.746Z" fill="#D8DAE6"/>
<path d="M105.747 149.402L122.681 118.638L149.823 133.68L132.889 164.459L105.747 149.402Z" fill="#D8DAE6"/>
<path d="M907.376 699.645L908.159 698.217L933.737 712.395L913.65 748.916L886.278 733.749L892.74 722.001L901.553 726.88L911.836 708.176L907.317 705.664L909.873 701.02L907.376 699.645Z" fill="#D8DAE6"/>
<path d="M645.105 565.612L645.729 564.476L646.488 564.071L647.385 563.81L648.255 563.844L649.074 564.14L649.768 564.679L650.257 565.407L650.514 566.308L650.578 567.176L649.969 568.3L659.451 573.558L646.952 596.248L611.388 576.523L616.372 567.479L618.528 568.678L620.876 564.414L618.719 563.215L623.888 553.819L636.456 560.808L637.066 559.694L638.408 559.096L639.34 559.002L640.293 559.202L640.658 559.367L641.44 559.968L641.978 560.739L642.278 561.697L642.378 562.615L641.765 563.734L645.105 565.612Z" fill="#D8DAE6"/>
<path d="M48.2632 816.743L56.6426 801.494L98.6544 824.774L87.3766 845.268L53.5575 826.518L56.4415 821.25L48.2632 816.743Z" fill="#D8DAE6"/>
<path d="M602.547 704.089L619.454 673.99L646.378 689.253L629.456 719.338L602.547 704.089Z" fill="#D8DAE6"/>
<path d="M641.06 385.792L655.657 359.17L686.264 375.962L677.025 392.824L671.663 402.583L655.938 393.947L655.937 393.947L641.06 385.792Z" fill="#D8DAE6"/>
<path d="M228.293 684.579L236.698 669.266L275.112 690.477L280.691 680.316L288.428 684.582L272.968 712.787L265.229 708.508L266.226 706.683L266.229 706.678L267.885 703.679L254.854 696.473L253.678 698.602L228.293 684.579Z" fill="#D8DAE6"/>
<path d="M420.476 573.552L424.072 558.587L458.5 578.105L468.619 583.827L476.293 588.181L475.915 588.846L475.913 588.85L456.311 623.726L450.95 620.695L463.684 598.03L454.537 592.862L456.282 589.762L444.081 582.842L442.338 585.943L420.476 573.552Z" fill="#D8DAE6"/>
<path d="M399.452 958.794L417.629 926.092L425.203 930.329L422.839 934.569L441.684 945.108L425.859 973.59L399.452 958.794Z" fill="#D8DAE6"/>
<path d="M28.2937 507.519L44.212 478.596L71.3539 493.668L55.4356 522.576L28.2937 507.519Z" fill="#D8DAE6"/>
<path d="M918.637 549.725L938.412 560.733L916.414 600.583L910.578 597.334L910.337 596.286L911.908 593.447L905.653 589.962L904.113 592.749L902.83 593.031L896.638 589.59L918.637 549.725Z" fill="#D8DAE6"/>
<path d="M105.856 903.675L117.24 882.97L154.659 903.719L143.286 924.409L105.856 903.675Z" fill="#D8DAE6"/>
<path d="M148.825 942.027L167.153 908.721L168.599 909.524L170.411 906.193L170.413 906.189L188.033 874.158L195.776 878.45L179.827 907.445L183.655 909.574L161.837 949.248L148.825 942.027Z" fill="#D8DAE6"/>
<path d="M744.308 21.0507L744.383 20.9172L754.376 26.4892L714.248 98.9426L704.264 93.3739L744.305 21.0562L744.308 21.0507Z" fill="#D8DAE6"/>
<path d="M646.605 851.945L660.279 826.978L671.531 833.267L689.396 843.045L684.612 851.772L687.132 853.163L678.241 869.405L646.605 851.945Z" fill="#D8DAE6"/>
<path d="M889.872 862.043L911.908 822.017L929.6 831.825L917.698 853.452L917.369 853.276L913.883 859.624L917.613 861.702L910.979 873.756L889.872 862.043Z" fill="#D8DAE6"/>
<path d="M1000.69 761.955L1029.3 777.922L1014.72 804.224L986.122 788.261L993.007 775.812L1000.69 761.955Z" fill="#D8DAE6"/>
<path d="M252.137 451.951L262.276 433.485L302.265 455.6L292.125 474.08L252.137 451.951Z" fill="#D8DAE6"/>
<path d="M197.967 918.139L194.081 925.188L193.255 924.722L175.595 956.862L163.591 950.217L185.408 910.544L191.069 913.681L207.018 884.666L214.186 888.638L197.967 918.139Z" fill="#D8DAE6"/>
<path d="M956.638 837.441L969.927 813.299L1000.36 830.18L995.659 838.71L987.977 852.686L987.975 852.69L987.068 854.324L956.638 837.441Z" fill="#D8DAE6"/>
<path d="M417.288 790.46L432.17 763.396L459.19 778.356L444.317 805.428L417.288 790.46Z" fill="#D8DAE6"/>
<path d="M227.17 936.84L244.451 905.412L270.491 919.845L257.206 943.993L227.044 937.07L227.17 936.84Z" fill="#D8DAE6"/>
<path d="M274.294 889.967L284.409 871.568L320.061 891.302L316.156 913.136L274.294 889.967Z" fill="#D8DAE6"/>
<path d="M12.1238 695.462L29.7816 663.671L52.2473 676.241L34.5932 708.036L12.1238 695.462Z" fill="#D8DAE6"/>
<path d="M25.5139 455.959L1.89673 442.856L18.5908 412.533L42.2092 425.641L25.5139 455.959Z" fill="#D8DAE6"/>
<path d="M365.326 1062.76L403.272 994.1L413.037 999.541L375.102 1068.2L365.326 1062.76Z" fill="#D8DAE6"/>
<path d="M962.619 576.581L964.585 573.029L976.534 579.671L973.846 584.549L974.318 593.49L957.718 623.568L939.763 613.583L960.754 575.539L962.619 576.581Z" fill="#D8DAE6"/>
<path d="M407.687 629.175L431.352 642.291L431.355 642.293L433.692 643.598L433.387 644.147L433.385 644.15L415.112 677.342L399.15 668.482L407.687 629.175Z" fill="#D8DAE6"/>
<path d="M540.563 668.969L542.974 664.685L543.534 665.006L547.049 658.747L551.435 661.227L559.7 646.528L555.324 644.047L560.897 634.114L579.987 644.944L579.989 644.945L582.209 646.197L562.432 681.354L540.563 668.969Z" fill="#D8DAE6"/>
<path d="M58.9966 990.392L70.0577 970.221L94.5691 983.806L88.7996 994.298L108.384 1005.16L103.085 1014.75L58.9966 990.392Z" fill="#D8DAE6"/>
<path d="M288.789 859.386L293.955 849.99L324.41 866.849L320.44 889.221L275.684 864.441L278.504 859.31L279.574 859.897L288.789 859.386Z" fill="#D8DAE6"/>
<path d="M448.478 823.153L448.862 822.46L470.421 834.403L452.709 866.62L431.153 854.682L448.476 823.157L448.478 823.153Z" fill="#D8DAE6"/>
<path d="M35.4739 862.786L38.6215 857.03L71.0458 874.997L61.1657 892.963L20.6069 870.502L27.327 858.289L35.4739 862.786Z" fill="#D8DAE6"/>
<path d="M263.226 13.9165L280.87 23.7406L260.058 61.466L242.404 51.6418L263.226 13.9165Z" fill="#D8DAE6"/>
<path d="M944.577 858.608L946.185 855.686L962.506 864.742L952.69 882.591L956.326 884.606L950.288 895.554L922.559 880.179L928.626 869.151L932.54 871.327L940.71 856.479L944.577 858.608Z" fill="#D8DAE6"/>
<path d="M941.507 446.278L963.354 458.136L946.799 488.621L924.995 476.691L941.507 446.278Z" fill="#D8DAE6"/>
<path d="M722.888 713.356L739.097 683.998L763.561 697.596L753.897 715.104L748.589 712.163L742.047 724.013L722.888 713.356Z" fill="#D8DAE6"/>
<path d="M161.841 288.869L185.125 246.698L200.392 255.194L177.098 297.365L161.841 288.869Z" fill="#D8DAE6"/>
<path d="M679.996 870.371L687.711 856.274L713.817 870.685L716.204 866.321L727.966 872.809L731.055 874.518L720.963 892.964L679.996 870.371Z" fill="#D8DAE6"/>
<path d="M244.263 166.741L259.365 139.287L279.432 150.411L262.51 181.174L260.39 185.014L247.572 177.906L251.509 170.757L244.263 166.741Z" fill="#D8DAE6"/>
<path d="M957.232 941.676L960.23 936.247L1005.41 961.346L998.386 974.067L998.384 974.07L996.109 978.227L996.107 978.23L989.407 990.354L974.255 981.932L974.251 981.93L974.125 981.859L987.13 958.298L979.827 954.228L957.232 941.676Z" fill="#D8DAE6"/>
<path d="M829.74 654.649L837.93 659.182L837.457 660.045L846.995 665.325L827.33 701.076L809.606 691.253L829.74 654.649Z" fill="#D8DAE6"/>
<path d="M167.982 52.4889L184.395 22.7288L205.478 34.4556L189.054 64.2011L167.982 52.4889Z" fill="#D8DAE6"/>
<path d="M308.462 766.608L309.868 764.065L341.381 781.466L337.845 799.831L335.343 800.719L298.23 780.212L306.321 765.427L308.462 766.608Z" fill="#D8DAE6"/>
<path d="M875.638 577.915L893.453 545.612L912.709 556.334L894.89 588.619L875.638 577.915Z" fill="#D8DAE6"/>
<path d="M70.0938 408.448L88.0053 376.193L107.045 386.802L89.2151 419.087L70.0938 408.448Z" fill="#D8DAE6"/>
<path d="M627.756 544.992L625.365 549.335L624.386 548.792L622.628 551.975L609.163 576.431L608.665 577.341L590.421 567.215L590.93 566.295L608.529 534.337L627.756 544.992Z" fill="#D8DAE6"/>
<path d="M288.246 774.708L304.094 745.786L344.12 767.899L341.783 779.408L309.077 761.349L307.671 763.892L305.522 762.706L296.471 779.245L288.246 774.708Z" fill="#D8DAE6"/>
<path d="M320.044 518.221L332.159 496.173L359.225 511.15L347.114 533.198L320.044 518.221Z" fill="#D8DAE6"/>
<path d="M327.602 629.953L331.507 632.162L344.878 639.748L325.887 673.467L308.626 663.672L327.602 629.953Z" fill="#D8DAE6"/>
<path d="M218.637 702.188L227.324 686.333L263.989 706.593L262.99 708.421L257.779 717.922L255.304 722.447L218.637 702.188Z" fill="#D8DAE6"/>
<path d="M22.3594 709.034L23.6777 706.649L41.1258 716.42L22.683 749.637L5.23291 739.864L22.3594 709.034Z" fill="#D8DAE6"/>
<path d="M268.376 612.794L274.644 601.677L309.742 621.594L308.445 623.88L323.815 632.601L317.159 644.435L309.264 639.953L310.948 636.944L305.563 633.896L305.562 633.895L268.376 612.794Z" fill="#D8DAE6"/>
<path d="M80.6682 537.109L96.9736 507.498L116.553 518.363L100.237 547.974L80.6682 537.109Z" fill="#D8DAE6"/>
<path d="M185.528 140.398L203.482 107.775L221.171 117.586L203.217 150.209L185.528 140.398Z" fill="#D8DAE6"/>
<path d="M104.169 372.685L121.745 340.862L139.787 350.908L122.203 382.732L104.169 372.685Z" fill="#D8DAE6"/>
<path d="M42.6392 762.223L60.5288 730L78.2322 739.902L60.3466 772.126L42.6392 762.223Z" fill="#D8DAE6"/>
<path d="M284.153 66.5009L302.371 33.4785L319.673 43.0985L319.582 43.2683L301.445 76.1187L284.153 66.5009Z" fill="#D8DAE6"/>
<path d="M91.2805 619.38L110.001 585.875L127.258 595.578L110.844 624.985L107.235 622.938L104.928 627.07L100.424 624.538L91.2805 619.38Z" fill="#D8DAE6"/>
<path d="M300.615 32.5067L282.399 65.5274L265.326 56.0396L283.544 23.0178L300.615 32.5067Z" fill="#D8DAE6"/>
<path d="M976.207 594.205L976.846 593.052L985.187 597.693L987.176 594.091L993.182 597.425L991.195 601.038L993.838 602.51L976.468 633.997L959.466 624.54L976.207 594.205Z" fill="#D8DAE6"/>
<path d="M163.216 181.281L180.638 149.619L198.194 159.352L180.764 191.014L163.216 181.281Z" fill="#D8DAE6"/>
<path d="M302.045 127.044L318.832 96.6118L337.069 106.756L320.281 137.174L302.045 127.044Z" fill="#D8DAE6"/>
<path d="M946.372 961.385L951.863 951.427L960.488 956.214L959.467 958.056L964.61 960.893L967.222 960.478L967.445 960.078L972.513 962.897L963.264 979.659L964.33 980.252L956.887 993.743L950.405 990.126L951.327 988.446L944.639 984.721L943.704 986.403L935.185 981.679L940.871 971.369L950.19 976.553L955.7 966.584L946.372 961.385Z" fill="#D8DAE6"/>
<path d="M454.481 677.977L463.319 661.912L480.065 671.192L459.807 707.971L444.044 699.219L447.599 692.764L448.949 690.303L454.716 693.497L461.217 681.72L454.481 677.977Z" fill="#D8DAE6"/>
<path d="M923.344 459.015L924.945 459.88L923.857 461.888L925.045 464.934L928.183 466.643L923.248 475.731L901.651 463.925L906.648 454.723L908.489 455.721L912.554 456.942L918.25 446.43L915.256 443.367L913.372 442.334L914.03 441.132L918.159 433.504L939.759 445.321L934.968 454.151L931.73 452.372L928.209 453.847L926.92 456.24L925.339 455.364L923.344 459.015Z" fill="#D8DAE6"/>
<path d="M483.46 760.969L500.227 730.529L518.139 740.465L501.384 770.908L483.46 760.969Z" fill="#D8DAE6"/>
<path d="M965.573 498.89L982.384 467.921L1000.06 477.598L983.255 508.566L965.573 498.89Z" fill="#D8DAE6"/>
<path d="M726.656 993.762L753.238 946.2L764.172 952.366L737.59 999.928L733.678 997.718L726.656 993.762Z" fill="#D8DAE6"/>
<path d="M751.969 1008.03L778.551 960.465L791.738 967.897L786.327 977.571L780.344 974.212L776.116 981.749L782.117 985.124L777.242 993.835L771.253 990.46L766.981 998.108L772.969 1001.48L767.593 1011.09L758.164 1005.78L755.729 1010.14L751.969 1008.03Z" fill="#D8DAE6"/>
<path d="M739.328 1000.91L765.911 953.348L776.809 959.484L750.226 1007.05L739.328 1000.91Z" fill="#D8DAE6"/>
<path d="M41.2893 720.23L58.3645 729.792L40.9017 761.246L23.8262 751.684L41.2893 720.23Z" fill="#D8DAE6"/>
<path d="M829.218 763.284L841.535 740.971L855.14 748.542L854.882 749.013L835.128 784.81L821.983 777.498L825.487 771.178L820.31 768.298L824.519 760.664L829.218 763.284Z" fill="#D8DAE6"/>
<path d="M-14.3918 728.892L2.24629 698.941L20.1103 708.937L3.47219 738.888L-14.3918 728.892Z" fill="#D8DAE6"/>
<path d="M-23.8315 302.99L-5.5711 269.728L10.5084 278.616L-7.75327 311.889L-23.8315 302.99Z" fill="#D8DAE6"/>
<path d="M97.5281 495.905L114.209 465.591L131.761 475.323L131.292 476.189L131.289 476.195L115.072 505.638L97.5281 495.905Z" fill="#D8DAE6"/>
<path d="M3.27327 526.558L-13.6195 556.801L-31.032 547.004L-14.1437 516.758L3.27327 526.558Z" fill="#D8DAE6"/>
<path d="M290.763 390.181L298.654 375.878L299.251 376.215L335.252 396.241L327.359 410.548L290.763 390.181Z" fill="#D8DAE6"/>
<path d="M272.544 110.634L289.332 80.2012L306.671 89.8499L289.883 120.283L272.544 110.634Z" fill="#D8DAE6"/>
<path d="M475.123 707.695L491.67 677.635L509.19 687.363L492.643 717.408L475.123 707.695Z" fill="#D8DAE6"/>
<path d="M126.294 511.871L142.99 481.568L160.253 491.141L143.561 521.455L126.294 511.871Z" fill="#D8DAE6"/>
<path d="M6.92849 406.062L-9.81231 436.473L-27.0027 426.937L-10.2528 396.521L6.92849 406.062Z" fill="#D8DAE6"/>
<path d="M-11.6904 801.228L4.46068 771.794L22.2454 781.62L6.10444 811.057L-11.6904 801.228Z" fill="#D8DAE6"/>
<path d="M71.7777 687.167L89.3689 697.016L73.0502 726.41L55.4529 716.56L59.4796 709.336L71.7777 687.167Z" fill="#D8DAE6"/>
<path d="M998.67 853.04L997.759 852.548L1002.68 843.602L999.947 842.082L1000.84 840.448L997.877 838.801L1002.43 830.555L1023.67 842.332L1019.11 850.598L1016.39 849.095L1015.5 850.708L1012.39 848.996L1004.57 863.207L1008.68 865.489L1009.53 863.954L1011.23 864.902L1006.6 873.322L985.356 861.546L988.315 856.169L988.317 856.165L989.225 854.531L995.834 858.197L998.67 853.04Z" fill="#D8DAE6"/>
<path d="M429.557 889.283L431.288 886.155L448.423 895.749L435.762 918.535L431.571 916.184L425.035 927.943L417.733 923.859L417.73 923.858L412.576 920.956L417.972 911.243L419.136 911.884L431.196 890.194L429.557 889.283Z" fill="#D8DAE6"/>
<path d="M523.765 438.144L525.179 435.613L543.066 445.552L527.037 474.386L509.298 464.53L510.495 462.381L523.765 438.144Z" fill="#D8DAE6"/>
<path d="M416.43 590.361L419.99 575.575L452.682 594.112L460.964 598.79L453.803 611.537L416.43 590.361Z" fill="#D8DAE6"/>
<path d="M86.5134 720.461L91.4945 711.477L91.8551 711.677L91.8579 711.679L145.301 741.581L140.312 750.563L86.5134 720.461Z" fill="#D8DAE6"/>
<path d="M47.793 342.178L65.8699 309.235L81.2566 317.74L63.1797 350.693L47.793 342.178Z" fill="#D8DAE6"/>
<path d="M604.156 928.106L612.958 912.34L644.824 930.277L636.007 946.046L604.156 928.106Z" fill="#D8DAE6"/>
<path d="M40.3252 464.175L57.0169 433.857L73.6897 443.105L56.9944 473.424L40.3252 464.175Z" fill="#D8DAE6"/>
<path d="M227.669 33.7742L244.398 3.45117L261.47 12.9439L249.506 34.615L245.892 35.4276L242.319 41.919L227.669 33.7742Z" fill="#D8DAE6"/>
<path d="M890.542 408.663L900.529 390.265L924.457 403.35L927.947 405.268L917.955 423.664L890.542 408.663Z" fill="#D8DAE6"/>
<path d="M347.722 921.825L372.824 926.256L372.029 927.689L379.261 931.755L387.769 916.433L394.567 920.237L379.386 947.566L346.393 929.086L347.722 921.825Z" fill="#D8DAE6"/>
<path d="M502.81 861.649L505.075 857.54L522.151 866.997L506.099 896.193L489.029 886.737L489.528 885.834L502.81 861.649Z" fill="#D8DAE6"/>
<path d="M966.244 457.014L981.504 465.349L963.818 497.93L948.557 489.582L966.244 457.014Z" fill="#D8DAE6"/>
<path d="M531.262 787.507L546.997 758.916L564.264 768.503L548.525 797.091L531.262 787.507Z" fill="#D8DAE6"/>
<path d="M87.2485 704.963L90.7626 698.62L150.568 732.077L146.268 739.832L93.6945 710.417L94.4807 708.989L87.2485 704.963Z" fill="#D8DAE6"/>
<path d="M78.4678 734.938L81.6181 729.264L93.3004 735.79L91.8983 738.333L134.009 761.894L129.55 769.934L97.676 752.099L95.5311 755.955L84.5884 749.844L89.4475 741.079L78.4678 734.938Z" fill="#D8DAE6"/>
<path d="M867.829 303.69L874.301 291.948L895.358 303.659L883.965 324.287L857.451 309.552L862.364 300.651L867.829 303.69Z" fill="#D8DAE6"/>
<path d="M518.213 62.352L517.389 63.8861L472.014 39.4063L473.723 27.9778L522.713 54.4046L521.239 57.1853L522.931 58.1093L520.114 63.3747L518.213 62.352Z" fill="#D8DAE6"/>
<path d="M150.216 42.6027L166.625 12.8572L182.647 21.7571L166.234 51.5168L150.216 42.6027Z" fill="#D8DAE6"/>
<path d="M442.059 813.691L457.237 786.06L474.502 795.615L459.309 823.259L442.059 813.691Z" fill="#D8DAE6"/>
<path d="M766.593 762.415L773.437 750.026L782.199 754.905L780.878 757.309L783.154 758.57L781.964 760.729L782.569 761.08L771.272 781.529L764.608 793.622L763.794 795.109L745.669 785.028L748.582 779.744L751.114 781.15L754.245 775.467L761.586 779.549L769.591 765.036L766.195 763.146L766.59 762.421L766.593 762.415Z" fill="#D8DAE6"/>
<path d="M506.91 607.288L507.746 607.753L507.133 608.847L512.792 612.061L494.733 644.197L480.11 635.907L487.359 623.028L490.524 624.821L494.641 617.496L491.476 615.703L498.169 603.79L504.3 607.257L506.178 603.931L508.16 605.058L506.91 607.288Z" fill="#D8DAE6"/>
<path d="M988.249 238.142L991.449 232.414L1016.93 246.757L1007.43 263.742L978.983 247.734L985.28 236.463L988.249 238.142Z" fill="#D8DAE6"/>
<path d="M545.804 656.893L542.786 662.267L542.228 661.947L538.831 667.983L525.969 660.699L545.383 626.165L558.804 633.77L553.1 643.936L545.804 656.893Z" fill="#D8DAE6"/>
<path d="M325.855 88.849L325.129 90.1748L317.637 85.9998L318.34 84.7387L313.669 82.1316L318.46 73.467L323.573 76.3149L330.275 64.1802L325.146 61.3323L330.992 50.7368L348.584 60.5298L342.061 72.358L337.046 69.5769L331.17 80.2214L335.568 82.6669L330.682 91.5226L325.855 88.849Z" fill="#D8DAE6"/>
<path d="M221.482 214.762L238.212 184.377L253.44 192.828L236.713 223.213L221.482 214.762Z" fill="#D8DAE6"/>
<path d="M97.7625 144.972L117.462 109.167L124.902 113.311L126.684 110.079L154.373 125.426L150.791 131.928L121.9 115.916L104.002 148.432L97.7625 144.972Z" fill="#D8DAE6"/>
<path d="M313.748 348.579L320.5 336.35L357.096 356.713L350.344 368.943L313.748 348.579Z" fill="#D8DAE6"/>
<path d="M985.166 456.12L1002.74 423.73L1016.72 431.39L999.139 463.766L985.166 456.12Z" fill="#D8DAE6"/>
<path d="M301.108 374.955L308.116 362.279L343.232 381.826L336.227 394.49L301.108 374.955Z" fill="#D8DAE6"/>
<path d="M658.242 948.719L660.727 944.262L672.305 950.785L669.601 955.629L671.533 956.715L671.781 957.84L670.611 959.938L668.842 960.402L662.667 971.45L664.436 972.442L659.113 981.953L641.513 972.042L646.842 962.523L648.624 963.516L654.765 952.516L654.366 950.821L655.469 948.848L658.242 948.719Z" fill="#D8DAE6"/>
<path d="M450.596 895.955L464.638 903.812L447.105 935.379L433.061 927.513L450.596 895.955Z" fill="#D8DAE6"/>
<path d="M271.044 765.193L286.891 736.286L302.347 744.819L286.5 773.741L271.044 765.193Z" fill="#D8DAE6"/>
<path d="M471.703 41.5088L516.851 65.8658L516.605 66.3221L519.03 67.6208L514.004 77.028L513.457 76.7282L513.109 76.541L513.379 76.0257L470.031 52.6525L471.703 41.5088Z" fill="#D8DAE6"/>
<path d="M378.138 928.827L374.747 926.92L375.937 924.774L348.087 919.858L351.3 902.361L381.831 907.756L378.138 928.827Z" fill="#D8DAE6"/>
<path d="M996.747 487.895L1001.81 478.558L1016.62 486.668L1011.47 496.146L1010.33 496.306L1008.64 499.42L1004.67 506.756L1004.64 508.74L999.811 517.622L985.01 509.526L989.996 500.33L992.031 500.185L997.923 489.321L996.747 487.895Z" fill="#D8DAE6"/>
<path d="M82.5923 727.515L85.5357 722.21L139.333 752.312L134.984 760.145L94.6132 737.558L96.0158 735.014L82.5923 727.515Z" fill="#D8DAE6"/>
<path d="M66.6533 528.808L84.8254 495.802L97.316 502.735L79.1467 535.74L66.6533 528.808Z" fill="#D8DAE6"/>
<path d="M869.904 446.556L877.452 432.763L907.392 449.145L899.889 462.965L869.904 446.556Z" fill="#D8DAE6"/>
<path d="M265.827 426.339L267.949 422.466L309.534 445.474L304.539 454.575L304.111 454.335L262.367 431.25L260.248 430.085L263.124 424.836L265.827 426.339Z" fill="#D8DAE6"/>
<path d="M463.465 819.847L479.952 789.85L493.534 797.376L477.044 827.369L463.465 819.847Z" fill="#D8DAE6"/>
<path d="M485.294 834.979L502.147 804.34L515.291 811.611L498.625 841.952L498.623 841.956L498.453 842.262L485.294 834.979Z" fill="#D8DAE6"/>
<path d="M796.81 266.043L805.844 249.655L830.673 263.463L821.629 279.834L796.81 266.043Z" fill="#D8DAE6"/>
<path d="M343.053 668.683L347.673 660.459L364.208 669.831L360.553 689.206L356.623 690.897L334.376 678.279L340.58 667.273L343.053 668.683Z" fill="#D8DAE6"/>
<path d="M971.511 443.21L986.81 415.026L1000.98 422.77L985.681 450.954L971.511 443.21Z" fill="#D8DAE6"/>
<path d="M901.479 388.507L910.607 371.694L933.661 384.301L924.533 401.114L901.479 388.507Z" fill="#D8DAE6"/>
<path d="M995.558 558.119L1012.98 567.815L1001.09 589.388L983.653 579.689L995.558 558.119Z" fill="#D8DAE6"/>
<path d="M262.623 105.114L283.019 68.1562L300.482 77.8697L297.847 82.6425L288.554 77.4783L270.8 109.662L262.623 105.114Z" fill="#D8DAE6"/>
<path d="M468.139 65.254L469.705 54.7554L510.68 76.8491L510.41 77.3651L511.612 78.0127L507.166 86.3116L468.139 65.254Z" fill="#D8DAE6"/>
<path d="M541.942 618.076L561.169 583.861L571.245 589.573L552.995 622.005L552.994 622.008L551.617 624.473L541.551 618.764L541.94 618.079L541.942 618.076Z" fill="#D8DAE6"/>
<path d="M99.7314 914.823L104.9 905.427L142.33 926.161L137.162 935.557L99.7314 914.823Z" fill="#D8DAE6"/>
<path d="M466.124 78.7384L467.832 67.3564L506.23 88.0747L501.126 97.6197L466.124 78.7384Z" fill="#D8DAE6"/>
<path d="M584.015 518.705L589.479 521.736L588.615 523.287L594.123 526.344L577.006 557.428L566.044 551.347L584.015 518.705Z" fill="#D8DAE6"/>
<path d="M307.608 359.708L312.785 350.33L349.381 370.694L344.203 380.075L308.217 360.044L307.608 359.708Z" fill="#D8DAE6"/>
<path d="M353.109 536.63L361.142 512.218L370.288 517.281L369.574 525.09L369.574 525.092L368.572 535.769L384.364 537.447L383.69 543.758L361.182 541.345L353.109 536.63Z" fill="#D8DAE6"/>
<path d="M321.466 334.598L326.536 325.393L363.132 345.76L358.062 354.962L321.466 334.598Z" fill="#D8DAE6"/>
<path d="M738.92 112.714L758.08 78.1196L767.63 83.4496L748.344 118.269L746.701 117.358L746.315 118.044L739.982 114.519L740.489 113.59L738.92 112.714Z" fill="#D8DAE6"/>
<path d="M262.36 623.512L267.403 614.537L303.717 635.143L298.664 644.1L262.36 623.512Z" fill="#D8DAE6"/>
<path d="M299.591 83.615L320.852 45.1069L329.237 49.7648L317.187 71.6228L311.43 82.0355L307.986 88.2927L299.591 83.615Z" fill="#D8DAE6"/>
<path d="M92.0129 365.919L109.585 334.096L119.994 339.889L102.418 371.712L92.0129 365.919Z" fill="#D8DAE6"/>
<path d="M244.45 474.361L249.366 465.411L285.816 485.557L280.909 494.521L244.45 474.361Z" fill="#D8DAE6"/>
<path d="M253.356 1001.1L257.829 992.856L295.84 1014.15L294.17 1021.55L291.5 1022.55L253.323 1001.16L253.356 1001.1Z" fill="#D8DAE6"/>
<path d="M297.263 347.748L313.578 318.193L324.784 324.421L319.23 334.505L308.469 353.99L297.263 347.748Z" fill="#D8DAE6"/>
<path d="M246.792 461.694L251.175 453.705L291.163 475.833L286.782 483.804L249.462 463.176L246.792 461.694Z" fill="#D8DAE6"/>
<path d="M256.423 634.052L261.379 625.255L297.683 645.843L292.726 654.658L256.423 634.052Z" fill="#D8DAE6"/>
<path d="M138.859 664.597L143.748 655.836L180.205 676.352L175.326 685.112L138.859 664.597Z" fill="#D8DAE6"/>
<path d="M918.154 601.556L937.852 565.876L946.877 570.889L927.18 606.579L918.154 601.556Z" fill="#D8DAE6"/>
<path d="M464.03 92.7696L465.81 80.8413L500.183 99.3833L494.826 109.393L464.03 92.7696Z" fill="#D8DAE6"/>
<path d="M458.047 624.711L477.162 590.703L486.46 595.958L467.995 628.807L467.336 629.979L458.047 624.711Z" fill="#D8DAE6"/>
<path d="M590.496 537.063L595.864 527.314L606.768 533.367L589.651 564.451L578.747 558.398L584.427 548.085L587.143 547.878L591.96 539.109L590.496 537.063Z" fill="#D8DAE6"/>
<path d="M261.098 968.672L263.764 959.463L304.548 971.369L302.738 980.723L261.098 968.672Z" fill="#D8DAE6"/>
<path d="M236.482 320.154L255.441 285.837L264.599 290.928L245.535 325.439L236.379 320.344L236.477 320.163L236.482 320.154Z" fill="#D8DAE6"/>
<path d="M378.872 989.333L336.819 982.421L338.24 973.656L373.413 979.421L374.979 976.973L383.177 981.544L378.872 989.333Z" fill="#D8DAE6"/>
<path d="M257.92 332.33L276.983 297.819L286.108 302.908L267.055 337.415L257.92 332.33Z" fill="#D8DAE6"/>
<path d="M952.638 576.116L953.1 575.282L957.314 577.624L938.007 612.611L928.919 607.552L947.768 573.398L952.638 576.116Z" fill="#D8DAE6"/>
<path d="M133.187 674.754L137.884 666.344L174.352 686.859L169.655 695.269L133.187 674.754Z" fill="#D8DAE6"/>
<path d="M237.652 667.513L242.265 659.095L278.932 679.35L274.316 687.757L237.652 667.513Z" fill="#D8DAE6"/>
<path d="M630.091 494.379L639.236 499.442L620.533 533.42L611.387 528.343L630.091 494.379Z" fill="#D8DAE6"/>
<path d="M203.166 62.3099L213.449 43.6814L228.197 51.8742L216.207 73.6066L201.609 65.4794L203.317 62.4053L203.166 62.3099Z" fill="#D8DAE6"/>
<path d="M480.639 540.786L489.026 545.526L488.622 546.237L488.62 546.24L470.309 578.821L468.742 581.594L460.36 576.855L480.639 540.786Z" fill="#D8DAE6"/>
<path d="M247.279 326.411L266.343 291.9L275.236 296.846L256.172 331.357L247.279 326.411Z" fill="#D8DAE6"/>
<path d="M5.18604 568.951L23.2122 536.671L32.4364 541.852L13.7399 575.337L13.7378 575.34L13.6312 575.533L8.85753 572.85L9.62986 571.462L5.18604 568.951Z" fill="#D8DAE6"/>
<path d="M151.958 532.561L161.319 537.765L143.295 570.529L133.919 565.324L151.958 532.561Z" fill="#D8DAE6"/>
<path d="M284.155 346.242L302.918 312.26L311.834 317.221L295.035 347.653L293.072 351.191L284.155 346.242Z" fill="#D8DAE6"/>
<path d="M601.138 609.363L609.846 614.289L591.371 647.165L590.554 648.613L581.845 643.693L601.138 609.363Z" fill="#D8DAE6"/>
<path d="M365.84 29.8225L381.773 1.55814L386.419 0.330811L392.038 3.42748L390.922 5.4455L373.145 38.0432L371.875 37.3613L366.6 34.5104L365.84 29.8225Z" fill="#D8DAE6"/>
<path d="M832.291 649.975L850.361 617.126L858.561 621.672L838.888 657.428L830.697 652.895L832.29 649.978L832.291 649.975Z" fill="#D8DAE6"/>
<path d="M313.918 710.38L318.484 702.055L349.175 718.995L352.447 726.882L351.578 731.198L313.918 710.38Z" fill="#D8DAE6"/>
<path d="M591.56 519.385L611.127 483.856L619.349 488.404L601.275 521.218L599.785 523.936L591.56 519.385Z" fill="#D8DAE6"/>
<path d="M234.146 452.328L254.581 415.075L262.233 419.307L241.48 457.128L233.829 452.898L234.143 452.333L234.146 452.328Z" fill="#D8DAE6"/>
<path d="M118.799 518.453L119.359 517.429L128.757 522.648L111.397 554.166L101.997 548.946L118.798 518.455L118.799 518.453Z" fill="#D8DAE6"/>
<path d="M105.785 958.787L105.445 959.428L82.8711 946.905L86.7325 939.877L130.26 964.004L127.842 968.392L119.872 963.964L118.754 965.98L105.785 958.787Z" fill="#D8DAE6"/>
<path d="M258.788 991.098L263.081 983.211L298.056 1002.8L296.264 1012.09L258.788 991.098Z" fill="#D8DAE6"/>
<path d="M727.104 806.994L727.818 805.699L755.277 820.855L750.226 830.074L734.855 821.602L721.902 814.438L717.997 812.292L722.333 804.371L727.104 806.994Z" fill="#D8DAE6"/>
<path d="M204.356 483.251L223.827 447.771L231.901 452.238L231.586 452.803L231.584 452.807L212.433 487.71L204.356 483.251Z" fill="#D8DAE6"/>
<path d="M541.889 495.636L563.068 457.178L570.983 461.579L568.38 466.251L568.378 466.255L557.437 486.107L557.435 486.109L557.397 486.18L549.802 482.199L546.748 488.083L554.211 492L550.905 498.04L550.904 498.043L549.811 500.026L541.889 495.636Z" fill="#D8DAE6"/>
<path d="M335.256 993.577L336.74 984.435L377.845 991.191L373.094 999.793L335.256 993.577Z" fill="#D8DAE6"/>
<path d="M882.807 422.913L889.587 410.421L915.801 424.766L909.014 437.246L904.61 434.832L906.462 431.409L894.481 424.847L892.625 428.274L882.807 422.913Z" fill="#D8DAE6"/>
<path d="M285.576 399.572L289.797 391.932L326.393 412.299L322.172 419.935L285.576 399.572Z" fill="#D8DAE6"/>
<path d="M-5.79358 765.458L2.98758 770.32L-14.8598 802.849L-23.6292 797.997L-5.79358 765.458Z" fill="#D8DAE6"/>
<path d="M295.373 210.194L303.391 214.649L284.189 249.542L276.169 245.104L295.373 210.194Z" fill="#D8DAE6"/>
<path d="M118.2 881.218L123.853 870.943L151.651 886.353L145.998 896.627L118.2 881.218Z" fill="#D8DAE6"/>
<path d="M226.888 313.693L245.37 280.24L253.681 284.865L235.199 318.318L226.888 313.693Z" fill="#D8DAE6"/>
<path d="M582.075 514.125L601.642 478.596L609.37 482.887L589.803 518.416L582.075 514.125Z" fill="#D8DAE6"/>
<path d="M301.374 352.33L307.503 355.741L305.367 359.617L283.832 398.599L277.701 395.189L301.374 352.33Z" fill="#D8DAE6"/>
<path d="M108.796 387.776L117.35 392.545L99.5202 424.829L90.9663 420.061L108.796 387.776Z" fill="#D8DAE6"/>
<path d="M287.654 201.613L307.329 165.873L314.901 170.081L295.225 205.811L287.654 201.613Z" fill="#D8DAE6"/>
<path d="M767.407 0.722126L771.77 -7.03833L806.398 12.5628L802.044 20.3226L767.407 0.722126Z" fill="#D8DAE6"/>
<path d="M528.288 476.252L544.793 446.561L552.386 451.21L533.566 485.388L525.433 480.866L528.288 476.252Z" fill="#D8DAE6"/>
<path d="M187.168 963.269L203.775 933.063L204.467 933.447L207.412 928.092L214.367 931.95L194.811 967.513L187.168 963.269Z" fill="#D8DAE6"/>
<path d="M640.84 544.014L659.712 509.736L668.311 514.508L653.486 541.435L648.335 538.572L643.291 547.722L639.843 545.813L640.839 544.016L640.84 544.014Z" fill="#D8DAE6"/>
<path d="M81.7108 362.007L100.058 328.784L107.846 333.123L89.7881 365.825L88.9279 367.376L81.1416 363.025L81.7083 362.011L81.7108 362.007Z" fill="#D8DAE6"/>
<path d="M612.086 614.4L612.416 613.816L620.345 618.305L620.013 618.908L601.526 651.764L593.609 647.277L612.085 614.402L612.086 614.4Z" fill="#D8DAE6"/>
<path d="M113.138 555.135L129.493 525.443L138.519 530.453L136.405 534.298L122.249 559.986L122.247 559.989L122.17 560.13L113.138 555.135Z" fill="#D8DAE6"/>
<path d="M662.266 936.437L679.903 904.901L688.234 909.582L670.594 941.122L662.266 936.437Z" fill="#D8DAE6"/>
<path d="M88.7637 139.998L108.475 104.192L115.706 108.196L96.0054 144.003L88.7637 139.998Z" fill="#D8DAE6"/>
<path d="M702.281 960.476L720.55 927.79L729.304 932.726L713.445 961.097L706.977 957.449L704.562 961.756L702.281 960.476Z" fill="#D8DAE6"/>
<path d="M631.622 537.765L649.564 505.177L657.51 509.583L639.568 542.17L631.622 537.765Z" fill="#D8DAE6"/>
<path d="M833.174 991.327L841.321 995.775L825.178 1025.53L823.937 1027.83L815.792 1023.38L833.174 991.327Z" fill="#D8DAE6"/>
<path d="M285.95 250.511L304.22 217.314L311.982 221.615L306.539 231.191L293.791 254.861L285.95 250.511Z" fill="#D8DAE6"/>
<path d="M55.3332 305.957L55.9886 304.759L63.7017 309.022L45.5584 342.085L45.5564 342.089L45.4842 342.219L37.7773 337.955L55.3332 305.957Z" fill="#D8DAE6"/>
<path d="M517.525 811.7L517.958 810.915L526.222 815.497L509.115 846.627L500.856 842.046L517.525 811.7Z" fill="#D8DAE6"/>
<path d="M-9.95163 821.008L-6.72548 815.106L1.95597 819.897L-14.4099 849.748L-23.082 844.944L-9.95163 821.008Z" fill="#D8DAE6"/>
<path d="M551.908 578.615L559.429 582.875L540.69 616.221L533.171 611.96L551.908 578.615Z" fill="#D8DAE6"/>
<path d="M474.263 754.831L492.033 722.546L499.921 726.933L482.147 759.202L474.263 754.831Z" fill="#D8DAE6"/>
<path d="M374.893 39.0138L392.193 7.2915L400.21 11.7279L382.747 43.5198L374.893 39.0138Z" fill="#D8DAE6"/>
<path d="M213.996 710.665L217.676 703.943L254.342 724.201L250.66 730.909L213.996 710.665Z" fill="#D8DAE6"/>
<path d="M332.741 1004.18L334.166 995.423L372.075 1001.65L367.514 1009.89L332.741 1004.18Z" fill="#D8DAE6"/>
<path d="M22.0122 381.463L40.0145 348.666L47.5732 352.849L29.5707 385.643L22.0122 381.463Z" fill="#D8DAE6"/>
<path d="M694.685 950.265L710.434 922.094L718.812 926.808L706.3 949.179L702.956 947.291L696.788 958.345L691.763 955.505L694.685 950.265Z" fill="#D8DAE6"/>
<path d="M486.731 509.008L503.388 478.75L511.611 483.301L494.944 513.571L486.731 509.008Z" fill="#D8DAE6"/>
<path d="M555.235 622.118L572.993 590.559L580.719 594.934L565.355 622.279L562.973 626.506L555.235 622.118Z" fill="#D8DAE6"/>
<path d="M832.055 627.656L840.764 611.813L848.612 616.157L831.021 648.135L823.184 643.795L828.437 634.235L830.302 633.754L832.597 629.557L832.055 627.656Z" fill="#D8DAE6"/>
<path d="M28.1363 334.121L45.8393 301.864L53.0962 305.87L35.5409 337.866L34.6935 339.402L27.4456 335.394L28.1341 334.125L28.1363 334.121Z" fill="#D8DAE6"/>
<path d="M-15.4226 605.863L-0.581293 579.285L8.78824 584.558L7.8803 586.18L-5.60798 610.348L-6.05056 611.137L-15.4226 605.863Z" fill="#D8DAE6"/>
<path d="M15.9834 575.442L33.5133 544.046L41.2341 548.376L25.0226 577.432L25.021 577.435L23.6968 579.79L15.9834 575.442Z" fill="#D8DAE6"/>
<path d="M661.357 552.195L678.876 520.388L686.53 524.633L669.014 556.436L661.357 552.195Z" fill="#D8DAE6"/>
<path d="M478.697 620.821L494.086 593.44L497.496 595.381L494.078 601.459L496.442 602.803L478.976 633.866L470.235 628.917L475.725 619.141L478.697 620.821Z" fill="#D8DAE6"/>
<path d="M670.067 515.479L677.143 519.417L658.463 553.334L651.388 549.41L670.067 515.479Z" fill="#D8DAE6"/>
<path d="M187.08 996.681L170.091 1027.55L162.2 1023.18L179.185 992.306L187.08 996.681Z" fill="#D8DAE6"/>
<path d="M91.1711 665.493L108.388 634.671L116.207 639.067L98.9912 669.901L91.1711 665.493Z" fill="#D8DAE6"/>
<path d="M506.282 650.734L523.832 619.529L531.499 623.881L513.948 655.073L506.282 650.734Z" fill="#D8DAE6"/>
<path d="M270.668 68.4909L270.825 68.2061L278.385 72.4127L260.87 104.143L253.31 99.9458L270.668 68.4909Z" fill="#D8DAE6"/>
<path d="M414.148 599.845L415.943 592.384L452.823 613.281L449.209 619.709L414.148 599.845Z" fill="#D8DAE6"/>
<path d="M81.6868 660.148L98.8919 629.332L106.648 633.691L89.4326 664.511L81.6868 660.148Z" fill="#D8DAE6"/>
<path d="M-7.58154 436.582L8.68466 407.033L16.8498 411.562L0.580194 441.115L-7.58154 436.582Z" fill="#D8DAE6"/>
<path d="M827.417 1025.6L843.08 996.733L851.516 1001.34L835.853 1030.21L827.417 1025.6Z" fill="#D8DAE6"/>
<path d="M247.457 966.693L249.65 960.568L257.839 963L255.63 971.475L243.096 994.271L234.824 989.676L247.457 966.693Z" fill="#D8DAE6"/>
<path d="M507.84 897.163L523.893 867.966L532.15 872.533L530.291 875.912L523.471 888.343L516.099 901.744L507.84 897.163Z" fill="#D8DAE6"/>
<path d="M152.731 1017.94L169.717 987.06L177.432 991.336L160.447 1022.21L152.731 1017.94Z" fill="#D8DAE6"/>
<path d="M682.797 948.242L700.532 916.512L708.688 921.112L693.425 948.414L687.598 945.137L685.125 949.551L682.797 948.242Z" fill="#D8DAE6"/>
<path d="M511.794 776.695L527.904 747.435L536.069 751.965L519.959 781.225L511.794 776.695Z" fill="#D8DAE6"/>
<path d="M267.937 725.153L276.141 729.683L260.191 758.788L251.981 754.251L267.937 725.153Z" fill="#D8DAE6"/>
<path d="M572.546 635.983L590.641 603.79L599.237 608.656L585.737 632.681L579.932 629.384L575.338 637.561L572.546 635.983Z" fill="#D8DAE6"/>
<path d="M154.858 907.505L163.045 912.04L147.08 941.057L138.903 936.526L154.858 907.505Z" fill="#D8DAE6"/>
<path d="M-5.56543 312.059L12.0151 280.028L19.301 284.052L18.4252 285.637L18.4238 285.64L1.72243 316.081L-5.56543 312.059Z" fill="#D8DAE6"/>
<path d="M509.316 622.345L514.544 613.047L522.619 617.613L504.545 649.749L496.484 645.183L502.716 634.097L505.806 635.839L512.405 624.103L509.316 622.345Z" fill="#D8DAE6"/>
<path d="M196.559 968.483L213.389 937.88L221.042 942.122L204.216 972.728L196.559 968.483Z" fill="#D8DAE6"/>
<path d="M333.359 630.915L337.188 624.103L369.384 642.368L367.851 650.479L333.359 630.915Z" fill="#D8DAE6"/>
<path d="M437.372 685.957L453.591 656.507L461.562 660.941L445.354 690.392L437.372 685.957Z" fill="#D8DAE6"/>
<path d="M603.514 521.308L621.102 489.374L628.347 493.409L610.768 525.327L603.514 521.308Z" fill="#D8DAE6"/>
<path d="M521.7 782.195L538.178 752.266L545.988 756.602L529.514 786.537L521.7 782.195Z" fill="#D8DAE6"/>
<path d="M699.761 854.968L704.332 846.608L732.62 862.233L728.053 870.573L699.761 854.968Z" fill="#D8DAE6"/>
<path d="M705.934 845.212L710.574 836.747L738.211 851.999L733.573 860.479L705.934 845.212Z" fill="#D8DAE6"/>
<path d="M237.826 959.63L239.07 957.382L247.723 959.993L245.62 965.869L233.068 988.706L224.466 983.947L237.824 959.633L237.826 959.63Z" fill="#D8DAE6"/>
<path d="M522.826 735.012L539.724 704.311L547.187 708.46L530.46 738.842L530.459 738.844L530.286 739.16L522.826 735.012Z" fill="#D8DAE6"/>
<path d="M37.7364 296.311L38.2351 295.4L45.049 299.164L44.5747 300.018L44.5722 300.022L26.8675 332.283L20.062 328.519L20.5505 327.636L20.5522 327.633L37.7364 296.311Z" fill="#D8DAE6"/>
<path d="M536.888 483.48L554.103 452.216L561.311 456.208L544.096 487.482L536.888 483.48Z" fill="#D8DAE6"/>
<path d="M623.043 533L640.981 500.412L647.815 504.207L629.873 536.794L623.043 533Z" fill="#D8DAE6"/>
<path d="M469.918 876.148L486.588 845.83L494.037 849.964L477.865 879.37L477.367 880.278L469.918 876.148Z" fill="#D8DAE6"/>
<path d="M210.887 920.757L225.193 894.743L234.014 899.626L219.708 925.654L210.887 920.757Z" fill="#D8DAE6"/>
<path d="M707.026 832.497L709.824 827.388L723.714 835.068L725.336 832.106L743.592 842.179L739.174 850.245L710.667 834.512L707.026 832.497Z" fill="#D8DAE6"/>
<path d="M514.246 728.504L530.418 699.131L537.987 703.339L521.818 732.716L514.246 728.504Z" fill="#D8DAE6"/>
<path d="M717.105 825.281L721.816 816.673L733.019 822.869L731.151 826.281L736.648 829.308L738.515 825.902L749.268 831.828L744.557 840.425L717.105 825.281Z" fill="#D8DAE6"/>
<path d="M934.924 856.251L928.979 867.052L927.854 866.427L920.822 879.209L912.731 874.726L928.65 845.798L931.201 847.211L928.256 852.555L934.924 856.251Z" fill="#D8DAE6"/>
<path d="M495.283 798.345L501.327 801.693L483.068 834.891L482.134 836.597L480.943 835.935L476.091 833.249L495.283 798.345Z" fill="#D8DAE6"/>
<path d="M465.75 710.951L472.897 714.921L456.315 745.029L449.166 741.057L465.75 710.951Z" fill="#D8DAE6"/>
<path d="M293.904 307.242L274.85 341.751L268.795 338.387L287.848 303.88L293.904 307.242Z" fill="#D8DAE6"/>
<path d="M36.3267 709.012L53.9806 677.218L60.6452 680.945L42.991 712.736L36.3267 709.012Z" fill="#D8DAE6"/>
<path d="M220.966 927.498L235.753 900.595L242.702 904.442L225.9 934.998L218.951 931.151L220.966 927.498Z" fill="#D8DAE6"/>
<path d="M200.2 918.229L215.935 889.608L223.433 893.773L208.643 920.666L207.698 922.378L200.2 918.229Z" fill="#D8DAE6"/>
<path d="M503.137 771.879L519.892 741.436L526.816 745.28L526.645 745.589L526.643 745.592L510.053 775.724L503.137 771.879Z" fill="#D8DAE6"/>
<path d="M3.48047 317.049L19.7019 287.482L26.8744 291.458L10.6528 321.021L3.48047 317.049Z" fill="#D8DAE6"/>
<path d="M454.449 867.589L473.009 833.833L479.092 837.2L460.544 870.97L454.449 867.589Z" fill="#D8DAE6"/>
<path d="M261.933 759.756L277.418 731.5L284.948 735.655L269.453 763.92L261.933 759.756Z" fill="#D8DAE6"/>
<path d="M23.9879 782.586L32.1677 787.104L17.7585 813.312L9.60596 808.809L23.9879 782.586Z" fill="#D8DAE6"/>
<path d="M182.543 906.664L197.529 879.418L205.268 883.697L190.282 910.959L185.501 908.309L182.543 906.664Z" fill="#D8DAE6"/>
<path d="M483.257 719.522L483.778 718.566L490.026 722.038L472.119 754.571L465.872 751.105L483.255 719.525L483.257 719.522Z" fill="#D8DAE6"/>
<path d="M74.1702 356.673L92.0463 324.323L98.3109 327.811L80.4454 360.162L74.1702 356.673Z" fill="#D8DAE6"/>
<path d="M716.513 724.892L721.906 715.108L743.864 727.317L738.457 737.096L716.513 724.892Z" fill="#D8DAE6"/>
<path d="M207.703 34.5496L208.662 32.8066L215.155 36.4101L209.575 46.5359L207.322 47.1451L203.711 53.6797L203.941 56.7349L197.286 68.7902L190.794 65.1736L207.703 34.5496Z" fill="#D8DAE6"/>
<path d="M12.4028 321.99L28.6245 292.427L35.5027 296.225L19.2813 325.792L12.4028 321.99Z" fill="#D8DAE6"/>
<path d="M532.699 738.935L548.943 709.43L556.791 713.771L543.591 737.753L538.04 734.682L534.998 740.215L532.699 738.935Z" fill="#D8DAE6"/>
<path d="M302.35 982.694L300.959 989.748L265.204 979.313L268.663 972.938L302.35 982.694Z" fill="#D8DAE6"/>
<path d="M506.281 589.027L519.762 565.033L528.263 569.856L514.772 593.831L506.281 589.027Z" fill="#D8DAE6"/>
<path d="M-19.8936 480.777L-6.8623 457.111L1.84629 461.949L-11.1851 485.611L-19.8936 480.777Z" fill="#D8DAE6"/>
<path d="M676.984 933.801L689.973 910.563L698.786 915.53L685.8 938.769L676.984 933.801Z" fill="#D8DAE6"/>
<path d="M177.356 957.83L191.213 932.615L199.28 937.086L185.423 962.299L177.356 957.83Z" fill="#D8DAE6"/>
<path d="M567.579 622.39L581.966 596.783L589.795 601.218L575.397 626.812L567.579 622.39Z" fill="#D8DAE6"/>
<path d="M457.748 746.594L474.657 715.893L481.03 719.433L464.131 750.135L457.748 746.594Z" fill="#D8DAE6"/>
<path d="M516.028 595.684L529.801 571.208L537.998 575.851L524.847 599.235L518.521 595.637L516.872 598.58L514.999 597.519L516.028 595.684Z" fill="#D8DAE6"/>
<path d="M515.688 656.059L529.626 631.281L537.655 635.817L523.735 660.584L523.733 660.588L523.721 660.61L515.688 656.059Z" fill="#D8DAE6"/>
<path d="M291.638 121.255L304.512 97.9238L313.174 102.741L300.3 126.072L291.638 121.255Z" fill="#D8DAE6"/>
<path d="M339.442 971.825L341.795 958.498L373.233 975.997L372.442 977.235L339.442 971.825Z" fill="#D8DAE6"/>
<path d="M988.56 996.028L992.612 988.692L1019.51 1003.64L1015.47 1010.99L988.56 996.028Z" fill="#D8DAE6"/>
<path d="M276.888 342.197L295.651 308.214L301.166 311.287L282.402 345.27L276.888 342.197Z" fill="#D8DAE6"/>
<path d="M878.417 431.008L881.861 424.67L908.941 439.482L911.795 441.049L911.138 442.251L911.136 442.254L908.353 447.387L878.417 431.008Z" fill="#D8DAE6"/>
<path d="M526.579 600.222L539.731 576.837L547.987 581.515L534.839 604.897L526.579 600.222Z" fill="#D8DAE6"/>
<path d="M545.34 738.723L558.54 714.74L566.647 719.238L553.444 743.224L545.34 738.723Z" fill="#D8DAE6"/>
<path d="M926.291 402.075L935.419 385.261L947.395 391.816L938.267 408.63L929.782 403.994L926.291 402.075Z" fill="#D8DAE6"/>
<path d="M205.966 973.697L219.678 948.754L227.392 953.017L213.669 977.956L205.966 973.697Z" fill="#D8DAE6"/>
<path d="M408.356 15.8065L411.72 9.67163L440.026 25.2387L438.962 32.7397L437.832 32.4304L423.755 24.638L412.618 18.1613L408.356 15.8065Z" fill="#D8DAE6"/>
<path d="M9.16895 7.22096L12.6014 1.00537L35.9906 13.9994L31.3934 22.3414L10.8248 10.9128L10.8213 10.9108L9.89347 10.3904L11.0586 8.27513L9.16895 7.22096Z" fill="#D8DAE6"/>
<path d="M257.499 972.22L258.106 969.883L259.577 970.315L259.582 970.316L266.7 972.37L252.094 999.257L244.841 995.241L257.499 972.22Z" fill="#D8DAE6"/>
<path d="M340.451 148.396L353.262 125.178L361.417 129.711L359.327 133.51L348.602 152.928L340.451 148.396Z" fill="#D8DAE6"/>
<path d="M993.576 986.942L997.371 980.072L1024.27 995.014L1020.48 1001.88L993.576 986.942Z" fill="#D8DAE6"/>
<path d="M555.2 744.195L568.404 720.209L576.143 724.504L562.929 748.486L555.2 744.195Z" fill="#D8DAE6"/>
<path d="M462.294 871.939L478.952 841.607L484.823 844.86L468.153 875.179L462.294 871.939Z" fill="#D8DAE6"/>
<path d="M124.481 560.079L137.673 536.142L145.365 540.403L132.174 564.353L124.481 560.079Z" fill="#D8DAE6"/>
<path d="M255.622 879.635L268.276 856.587L268.87 856.924L270.109 854.663L276.745 858.344L262.852 883.639L255.622 879.635Z" fill="#D8DAE6"/>
<path d="M480.09 879.46L492.408 857.044L500.573 861.56L488.255 883.99L480.09 879.46Z" fill="#D8DAE6"/>
<path d="M347.551 540.79L349.67 536.934L351.4 537.948L360.544 543.288L383.478 545.747L382.635 553.692L368.991 552.233L347.551 540.79Z" fill="#D8DAE6"/>
<path d="M673.793 966.354L677.259 960.145L682.45 963.066L668.832 987.44L660.844 982.935L666.658 972.547L670.993 964.768L673.793 966.354Z" fill="#D8DAE6"/>
<path d="M983.981 1004.34L987.595 997.78L1014.51 1012.74L1010.88 1019.29L987.036 1006.04L983.981 1004.34Z" fill="#D8DAE6"/>
<path d="M24.2183 627.824L36.8791 605.165L44.7582 609.605L32.1115 632.265L24.2183 627.824Z" fill="#D8DAE6"/>
<path d="M-1.70532 28.5911L2.57892 20.8386L4.68162 21.9988L4.68441 22.0004L25.2483 33.4327L20.9676 41.2004L-1.70532 28.5911Z" fill="#D8DAE6"/>
<path d="M469.951 693.698L481.81 672.162L489.925 676.664L478.079 698.198L469.951 693.698Z" fill="#D8DAE6"/>
<path d="M1003.4 977.995L1005.35 974.445L1014.21 979.383L1014.96 978.054L1029.24 985.995L1025.24 993.263L998.338 978.319L999.655 975.914L1003.4 977.995Z" fill="#D8DAE6"/>
<path d="M215.419 978.925L228.307 955.505L235.596 959.54L222.72 982.978L215.419 978.925Z" fill="#D8DAE6"/>
<path d="M812.167 1004.4L822.436 985.445L831.431 990.368L821.161 1009.31L812.167 1004.4Z" fill="#D8DAE6"/>
<path d="M433.513 733.492L448.571 706.151L454.335 709.355L439.29 736.697L433.513 733.492Z" fill="#D8DAE6"/>
<path d="M50.5767 703.219L62.4024 681.921L70.0287 686.19L58.2135 707.489L50.5767 703.219Z" fill="#D8DAE6"/>
<path d="M441.825 736.23L456.079 710.327L462.003 713.624L447.745 739.514L441.825 736.23Z" fill="#D8DAE6"/>
<path d="M5.64038 617.378L17.3915 596.335L24.8109 600.505L13.128 621.581L5.64038 617.378Z" fill="#D8DAE6"/>
<path d="M121.388 498.323L132.562 478.043L139.996 482.283L128.884 502.471L121.388 498.323Z" fill="#D8DAE6"/>
<path d="M6.52881 20.7351L10.7152 13.1462L30.4153 24.0923L26.2191 31.6817L6.52881 20.7351Z" fill="#D8DAE6"/>
<path d="M-3.37524 610.452L9.13835 588.031L15.5391 591.625L3.02548 614.047L-3.37524 610.452Z" fill="#D8DAE6"/>
<path d="M435.952 979.252L449.8 954.354L455.352 957.456L441.515 982.371L435.952 979.252Z" fill="#D8DAE6"/>
<path d="M264.606 884.607L274.717 866.193L282.663 870.598L272.548 888.999L264.606 884.607Z" fill="#D8DAE6"/>
<path d="M985.825 914.472L998.059 892.247L1004.31 895.708L992.065 917.932L985.825 914.472Z" fill="#D8DAE6"/>
<path d="M341.063 654.414L344.406 648.478L365.928 660.681L364.596 667.754L341.063 654.414Z" fill="#D8DAE6"/>
<path d="M977.987 955.491L976.118 958.876L975.05 958.282L973.475 961.145L952.826 949.676L956.271 943.428L977.987 955.491Z" fill="#D8DAE6"/>
<path d="M273.807 986.926L274.615 984.143L300.239 991.618L298.469 1000.74L273.807 986.926Z" fill="#D8DAE6"/>
<path d="M298.985 658.204L308.281 641.697L316.175 646.178L306.882 662.685L298.985 658.204Z" fill="#D8DAE6"/>
<path d="M875.263 290.196L878.562 284.221L899.619 295.932L896.32 301.908L875.263 290.196Z" fill="#D8DAE6"/>
<path d="M981.325 563.009L990.941 545.581L998.014 549.518L988.402 566.947L981.325 563.009Z" fill="#D8DAE6"/>
<path d="M691.373 973.035L695.226 966.128L696.962 967.111L682.124 993.66L677.187 990.883L688.161 971.23L691.373 973.035Z" fill="#D8DAE6"/>
<path d="M31.2004 449.777L43.9546 426.611L48.8696 429.336L36.1154 452.502L31.2004 449.777Z" fill="#D8DAE6"/>
<path d="M327.626 674.454L338.449 655.229L345.934 659.473L342.298 665.95L339.826 664.54L332.637 677.292L327.626 674.454Z" fill="#D8DAE6"/>
<path d="M972.856 558.305L982.48 540.877L989.193 544.608L979.577 562.037L972.856 558.305Z" fill="#D8DAE6"/>
<path d="M345.392 646.736L348.253 641.665L367.459 652.557L366.322 658.604L345.392 646.736Z" fill="#D8DAE6"/>
<path d="M979.373 587.462L982.695 581.44L1000.13 591.139L996.8 597.158L995.033 596.164L979.373 587.462Z" fill="#D8DAE6"/>
<path d="M996.528 556.368L999.766 550.491L1017.2 560.186L1013.95 566.064L996.528 556.368Z" fill="#D8DAE6"/>
<path d="M670.578 988.423L682.098 967.807L686.416 970.248L674.951 990.778L674.949 990.782L674.906 990.861L670.578 988.423Z" fill="#D8DAE6"/>
<path d="M370.744 533.989L371.467 526.291L385.377 527.859L384.572 535.458L370.744 533.989Z" fill="#D8DAE6"/>
<path d="M371.663 524.299L372.249 517.89L386.287 519.403L385.6 525.87L371.663 524.299Z" fill="#D8DAE6"/>
<path d="M683.859 994.642L693.496 977.403L697.137 979.459L687.497 996.698L683.859 994.642Z" fill="#D8DAE6"/>
<path d="M689.234 997.68L698.876 980.44L701.726 982.037L692.096 999.292L689.234 997.68Z" fill="#D8DAE6"/>
</g>
<defs>
<clipPath id="clip0_2122_98919">
<rect width="1000" height="1000" fill="white"/>
</clipPath>
</defs>
</svg>
